<?xml version="1.0" standalone="no"?>
<!DOCTYPE svg PUBLIC "-//W3C//DTD SVG 20010904//EN"
 "http://www.w3.org/TR/2001/REC-SVG-20010904/DTD/svg10.dtd">
<svg version="1.0" xmlns="http://www.w3.org/2000/svg"
 width="1120.000000pt" height="1270.000000pt" viewBox="0 0 1120.000000 1270.000000"
 preserveAspectRatio="xMidYMid meet">

<g transform="translate(0.000000,1270.000000) scale(0.100000,-0.100000)"
fill="#000000" stroke="none">
<path d="M1875 12348 c-11 -6 -40 -29 -64 -50 -24 -21 -48 -38 -52 -38 -5 0
-18 9 -29 20 -41 41 -140 18 -140 -33 0 -16 -10 -20 -83 -32 -55 -9 -64 -30
-70 -180 -4 -85 -11 -146 -23 -175 -31 -84 -17 -206 30 -253 23 -22 53 -22
101 3 49 25 53 25 84 -4 52 -47 159 -62 202 -27 15 12 35 52 54 107 34 101 49
114 131 114 73 0 108 -15 127 -55 9 -19 27 -40 39 -48 26 -16 219 -42 243 -33
9 3 22 21 30 41 43 101 -22 253 -117 272 -20 4 -29 13 -33 34 -4 16 -20 41
-37 56 -72 64 -78 73 -84 115 -9 60 -60 106 -160 146 -84 34 -117 38 -149 20z
m161 -62 c86 -41 110 -64 118 -119 6 -33 18 -52 59 -91 28 -26 56 -62 62 -79
10 -31 18 -37 73 -58 49 -18 87 -88 87 -161 0 -87 -9 -93 -128 -75 -102 15
-119 23 -140 66 -19 40 -71 61 -154 61 -67 0 -73 -2 -106 -33 -25 -25 -39 -52
-52 -100 -24 -90 -48 -112 -116 -104 -38 5 -64 16 -96 41 -31 24 -50 32 -61
27 -9 -4 -34 -15 -56 -25 -21 -9 -45 -15 -53 -12 -40 16 -56 147 -27 227 9 26
18 90 20 154 7 169 9 175 47 175 46 0 100 30 107 60 5 20 13 26 40 28 28 3 39
-2 56 -23 27 -34 43 -30 126 36 73 59 80 59 194 5z"/>
<path d="M2047 11175 c-21 -7 -40 -15 -41 -17 -15 -16 -26 -53 -26 -81 0 -61
-18 -93 -62 -113 -23 -10 -65 -46 -97 -82 l-56 -64 -56 6 c-69 8 -101 -5 -125
-50 -18 -34 -18 -35 6 -102 49 -133 27 -246 -79 -399 -126 -183 -184 -243
-238 -243 -12 0 -34 -11 -49 -25 -46 -43 -75 -35 -269 75 -157 89 -184 96
-288 75 -151 -31 -167 -52 -167 -223 0 -117 15 -190 56 -283 43 -96 58 -105
240 -143 222 -48 365 -70 394 -63 14 3 54 28 90 54 l64 48 166 -1 c159 -1 293
-12 430 -35 57 -10 70 -17 105 -54 22 -23 60 -80 84 -126 67 -127 126 -215
197 -293 35 -39 79 -93 96 -121 32 -48 50 -62 115 -85 18 -7 50 -30 70 -51 42
-43 97 -142 82 -148 -14 -4 -37 28 -44 62 -9 38 -55 81 -103 95 -56 17 -97 54
-148 134 -59 91 -109 145 -144 153 -23 5 -29 13 -35 42 -9 49 -60 148 -135
263 -34 52 -63 96 -65 98 -8 9 -434 33 -545 30 -143 -4 -169 -11 -242 -70 -42
-33 -174 -38 -223 -9 -20 11 -75 28 -123 37 -48 9 -110 20 -138 25 -28 6 -69
19 -90 29 -21 11 -44 20 -51 20 -23 0 -33 -48 -33 -159 0 -112 -13 -168 -58
-257 -35 -68 -41 -70 -133 -45 -87 24 -133 21 -149 -9 -31 -58 -39 -516 -10
-570 8 -14 19 -72 26 -130 8 -65 27 -153 52 -230 22 -69 43 -140 47 -157 9
-43 28 -42 76 2 58 52 119 45 119 -12 0 -42 27 -91 62 -110 27 -15 57 -18 168
-18 l135 0 48 -35 c42 -30 54 -34 103 -32 41 2 56 -1 60 -13 6 -15 63 -35 102
-35 14 0 36 -13 51 -29 l28 -30 -23 -5 c-36 -9 -52 -43 -80 -167 -43 -196
-112 -318 -289 -515 -192 -212 -258 -315 -325 -510 l-41 -118 63 -64 c35 -35
81 -77 102 -93 21 -16 35 -29 29 -29 -16 0 -84 53 -133 104 -73 76 -100 62
-145 -75 -50 -148 -156 -278 -269 -329 -70 -31 -96 -64 -96 -120 0 -68 32
-108 163 -207 31 -23 67 -59 80 -80 13 -21 47 -65 75 -97 28 -33 64 -87 81
-121 17 -33 65 -103 107 -155 89 -111 124 -163 124 -185 0 -9 14 -24 31 -33
18 -10 56 -56 95 -114 42 -65 70 -98 83 -98 10 0 62 41 115 91 62 57 119 100
153 116 57 26 386 113 428 113 20 0 26 -7 35 -40 14 -54 59 -103 122 -134 63
-31 99 -33 124 -5 10 12 31 27 46 35 35 18 112 18 141 0 12 -7 34 -16 48 -20
27 -6 36 -2 179 77 36 20 117 59 180 87 l115 50 -35 -33 c-24 -23 -53 -37 -92
-45 -33 -8 -92 -34 -140 -63 -159 -97 -170 -100 -266 -78 -69 16 -135 4 -176
-32 -40 -35 -45 -35 -99 -7 -23 11 -62 26 -87 33 -43 11 -45 13 -51 52 -8 63
-22 73 -94 73 -99 0 -286 -36 -357 -68 -35 -16 -85 -49 -112 -73 -59 -52 -136
-154 -136 -179 0 -9 14 -34 30 -55 17 -21 44 -66 60 -99 16 -34 60 -95 96
-136 77 -86 178 -235 188 -276 6 -22 3 -31 -14 -44 -32 -24 -21 -46 76 -152
46 -50 97 -114 112 -142 19 -35 42 -59 76 -80 42 -27 59 -31 142 -34 137 -6
213 26 198 84 -6 22 49 110 78 128 13 8 34 6 80 -7 180 -51 246 -67 278 -67
33 0 90 -24 200 -85 41 -22 56 -24 165 -24 128 0 478 24 494 33 18 11 69 160
85 246 9 47 20 137 26 200 19 214 44 303 94 335 33 22 92 13 99 -14 7 -29 70
-70 118 -77 97 -13 199 43 266 145 58 89 103 133 204 201 138 93 179 157 127
193 -21 15 -20 15 22 2 25 -7 66 -16 93 -20 73 -10 79 -24 91 -220 2 -43 1
-60 -4 -45 -4 14 -8 44 -9 68 -1 62 -20 128 -42 148 -26 23 -54 13 -121 -45
-31 -26 -90 -67 -130 -89 -98 -54 -163 -114 -231 -214 -57 -85 -97 -120 -164
-144 -79 -28 -139 -12 -217 56 -31 28 -66 50 -76 50 -49 0 -78 -89 -105 -320
-33 -281 -66 -411 -117 -458 -37 -34 -80 -42 -223 -42 -104 0 -135 -3 -153
-16 -13 -9 -21 -22 -19 -29 4 -9 -12 -11 -66 -8 -81 5 -141 23 -209 65 -70 44
-153 69 -251 78 -79 8 -94 13 -142 45 -95 66 -195 57 -195 -17 0 -99 -89 -169
-214 -170 -55 0 -77 5 -133 33 -60 30 -77 34 -148 34 -107 0 -169 -29 -273
-128 -86 -82 -110 -97 -193 -121 -98 -28 -162 -121 -195 -285 -28 -141 -9
-262 56 -355 66 -97 63 -131 -13 -180 -28 -18 -95 -72 -147 -119 -144 -130
-227 -168 -477 -216 -116 -22 -143 -34 -143 -60 0 -24 38 -38 125 -46 39 -3
93 -10 120 -16 58 -12 319 -137 385 -185 25 -17 104 -61 175 -97 503 -251 751
-398 1143 -675 206 -146 239 -167 316 -204 88 -43 202 -123 233 -165 15 -20
54 -64 85 -99 31 -34 64 -78 72 -98 11 -28 22 -36 49 -41 22 -4 37 -14 40 -25
3 -10 23 -26 46 -37 27 -12 101 -77 209 -185 116 -116 175 -168 190 -168 24 0
79 52 201 188 40 46 89 91 110 100 20 9 40 27 46 39 5 13 22 27 37 32 63 22
218 198 218 248 0 52 -37 104 -224 308 -189 208 -251 296 -261 375 l-6 45 19
-56 c25 -75 62 -138 84 -145 10 -3 18 -11 18 -17 0 -28 342 -399 394 -426 22
-12 43 -7 218 53 107 36 215 69 239 72 33 4 94 -6 240 -40 107 -24 218 -48
245 -51 65 -9 123 8 176 50 142 113 192 140 331 176 62 15 113 58 224 189 108
126 176 191 221 209 29 12 40 12 87 -4 l54 -19 53 26 c104 51 112 49 158 -42
33 -66 84 -131 166 -216 32 -33 101 -106 152 -162 52 -57 101 -102 111 -102
10 0 30 9 45 21 29 23 76 107 76 136 0 41 24 97 55 132 83 91 77 156 -10 110
l-37 -20 -26 23 c-31 29 -128 177 -152 234 -15 34 -26 45 -52 52 -62 16 -73
120 -21 183 49 58 70 200 37 247 -12 18 -25 22 -64 22 -45 0 -50 2 -56 26 -4
14 -4 56 -1 93 7 82 -4 145 -32 180 -50 62 -54 70 -41 86 6 8 36 28 65 44 68
39 84 64 53 85 -12 9 -32 16 -45 16 -34 0 -71 17 -83 39 -8 16 -4 32 20 78 17
32 38 96 47 141 16 81 16 84 -4 110 -11 15 -51 44 -89 65 -70 39 -102 63 -93
71 3 3 25 -8 49 -24 25 -17 60 -35 78 -41 30 -10 36 -8 59 12 30 29 54 75 98
187 l33 86 -24 35 c-25 38 -31 56 -13 46 22 -14 57 5 64 34 9 43 -10 103 -72
225 -45 89 -54 115 -49 142 3 19 9 49 12 67 5 27 -2 42 -45 101 -61 82 -72
113 -46 133 46 33 108 4 229 -106 100 -91 179 -147 244 -171 49 -19 70 -21
147 -17 84 6 93 4 140 -21 37 -20 55 -38 70 -69 11 -23 36 -59 55 -79 65 -67
225 -174 260 -174 28 0 3 45 -56 102 -72 69 -106 125 -123 206 -17 82 -47 130
-129 215 -85 86 -88 95 -63 207 16 75 23 84 65 82 50 -2 100 -30 206 -115 105
-85 164 -118 225 -124 76 -9 100 50 44 107 -37 37 -130 86 -182 95 -45 9 -77
46 -77 90 0 42 19 57 83 63 84 7 98 33 29 52 -20 5 -75 32 -122 60 -176 105
-507 262 -582 277 -18 3 -45 19 -60 35 -14 15 -25 28 -24 28 1 0 42 -16 92
-36 120 -48 322 -148 472 -232 121 -69 216 -107 248 -100 38 7 39 32 11 150
-15 62 -27 121 -27 130 0 24 44 73 58 64 7 -4 31 -35 53 -69 54 -80 88 -117
110 -117 47 0 27 71 -46 168 -57 77 -63 90 -43 110 19 19 37 15 128 -28 47
-22 93 -40 102 -40 9 0 28 14 41 31 22 28 29 31 58 25 68 -13 129 -92 129
-166 0 -68 18 -80 63 -40 64 56 226 66 235 15 2 -11 25 -42 52 -70 55 -58 70
-83 70 -120 0 -75 45 -85 92 -20 44 60 87 80 134 65 71 -24 134 -99 134 -159
0 -45 31 -61 115 -61 82 0 100 8 92 41 -53 202 -67 250 -81 283 -46 110 -196
268 -338 355 -48 29 -104 68 -126 87 -47 39 -53 67 -77 311 -23 241 -30 403
-17 403 7 0 55 -11 107 -25 118 -30 287 -42 366 -26 87 18 113 54 145 201 24
112 31 120 108 120 77 0 227 37 317 78 37 16 108 57 159 91 51 33 99 61 108
61 31 0 333 -172 424 -242 51 -39 161 -139 243 -222 120 -121 156 -164 182
-216 36 -74 109 -151 166 -175 22 -9 71 -40 109 -70 87 -66 109 -72 152 -45
19 11 45 20 59 20 46 0 77 17 77 43 0 29 -27 55 -107 102 -35 20 -63 41 -63
47 0 5 14 28 31 49 18 23 33 56 36 79 5 34 1 43 -25 70 -20 20 -40 30 -60 30
-21 0 -36 8 -49 26 -28 38 -106 45 -162 16 l-40 -21 -28 21 c-15 12 -67 59
-114 104 -117 111 -196 168 -270 193 -76 25 -99 45 -99 83 0 41 14 63 57 89
48 28 93 69 93 85 0 22 -41 63 -91 90 -27 15 -55 39 -62 53 -12 25 -20 28
-112 50 -27 7 -106 36 -175 66 -228 97 -273 102 -415 45 -87 -34 -70 -38 -202
42 -86 52 -232 123 -275 133 -24 6 -34 1 -72 -39 -54 -55 -92 -61 -146 -21
-29 21 -41 25 -77 19 -40 -6 -44 -4 -95 45 -63 61 -99 74 -256 91 -150 17
-174 11 -239 -57 l-54 -56 -79 7 c-72 7 -79 6 -89 -13 -6 -11 -11 -32 -11 -46
0 -60 -43 -86 -72 -43 -19 28 -48 18 -48 -17 0 -34 -37 -70 -103 -100 -56 -27
-98 -30 -162 -15 -22 6 -137 14 -255 20 -231 11 -330 23 -370 45 -33 19 -21
18 128 -5 149 -23 250 -27 348 -16 60 7 85 5 155 -14 105 -27 153 -18 211 40
31 31 38 45 38 78 0 33 -6 45 -31 66 -17 14 -43 29 -57 32 -54 13 -62 29 -62
128 0 117 -11 136 -80 136 -68 0 -71 5 -140 186 -46 121 -73 154 -157 187
-103 41 -157 79 -196 139 -57 88 -169 178 -220 178 -32 0 -47 -8 -131 -68 -25
-18 -106 -67 -178 -109 -221 -126 -283 -172 -458 -338 -95 -91 -190 -153 -369
-245 -56 -29 -90 -54 -102 -74 -20 -33 -25 -23 -9 19 6 16 24 32 47 42 84 34
159 76 181 99 13 13 30 24 38 24 24 0 94 52 188 139 161 149 366 305 444 338
20 8 84 46 142 83 58 37 124 77 147 89 45 23 45 22 63 134 6 37 24 102 41 145
38 98 48 172 26 205 -9 14 -44 38 -79 54 -113 53 -258 179 -258 222 0 18 74
91 91 91 24 0 34 54 39 203 l5 158 37 32 c46 40 58 65 58 118 0 113 -51 176
-271 331 -134 95 -229 184 -229 217 -1 25 -21 55 -79 116 -29 32 -62 77 -73
102 -10 24 -51 83 -89 131 -81 100 -119 168 -119 212 0 17 -7 46 -14 65 -14
32 -19 35 -55 35 -41 0 -91 -17 -91 -31 0 -11 -59 -29 -96 -29 -29 0 -36 -5
-48 -32 -13 -33 -13 -32 -12 27 1 57 0 60 -25 63 -35 4 -99 -66 -141 -155 -18
-38 -34 -70 -35 -72 -2 -2 -29 21 -60 51 -32 30 -68 60 -81 67 -24 13 -62 7
-62 -10 0 -25 -72 -39 -207 -40 -79 0 -153 -5 -173 -12 -42 -14 -70 -63 -70
-120 0 -39 -14 -77 -28 -77 -5 0 -18 21 -31 47 -13 26 -35 63 -51 83 -37 48
-57 88 -65 135 -14 72 -35 115 -63 122 -55 13 -81 -69 -64 -198 5 -41 7 -77 3
-82 -4 -4 -59 -14 -122 -21 -126 -16 -166 -28 -220 -63 -27 -18 -48 -23 -81
-22 -73 4 -83 -13 -48 -88 13 -29 25 -43 38 -43 47 0 111 -88 112 -153 0 -20
13 -41 40 -69 73 -75 41 -138 -70 -138 -77 0 -135 22 -200 75 -64 53 -126 78
-230 94 -126 20 -148 28 -179 71 -39 55 -76 83 -151 117 -36 16 -94 55 -129
86 -39 35 -73 57 -87 57 -40 0 -28 -32 42 -111 91 -103 114 -146 125 -229 10
-81 19 -99 69 -130 47 -29 82 -85 114 -182 41 -120 33 -174 -18 -123 -39 39
-109 65 -274 101 -13 2 -58 37 -100 77 -95 91 -126 112 -180 126 -66 18 -124
110 -162 257 -15 62 -42 90 -99 104 -27 6 -76 28 -110 48 -50 29 -62 41 -67
68 -11 58 46 430 73 475 9 15 43 42 76 61 92 51 140 116 182 246 26 78 18 93
-72 136 -43 21 -110 58 -149 82 -39 24 -74 44 -77 44 -4 0 -16 -19 -28 -42
-36 -72 -38 -73 -78 -35 -40 38 -86 57 -139 57 -28 0 -43 8 -71 39 -60 64 -91
73 -164 46z m121 -49 c43 -49 72 -65 124 -70 56 -5 102 -28 124 -60 32 -50 61
-42 96 28 11 23 22 42 23 44 2 2 27 -12 56 -31 30 -19 91 -53 137 -76 83 -42
83 -42 77 -74 -13 -59 -72 -174 -106 -206 -19 -17 -59 -46 -89 -64 -72 -42
-86 -73 -116 -250 -32 -188 -39 -304 -22 -337 17 -32 107 -86 182 -109 32 -10
63 -26 68 -35 5 -9 18 -49 29 -88 37 -132 99 -219 173 -240 53 -15 108 -53
170 -118 67 -68 97 -85 187 -103 86 -17 189 -62 189 -82 0 -7 7 -16 16 -19 75
-29 95 44 48 182 -32 98 -72 160 -127 199 -45 31 -57 57 -57 127 0 49 -42 126
-106 196 -55 60 -56 62 -14 27 25 -21 77 -54 116 -73 88 -42 118 -66 149 -114
27 -43 73 -62 190 -80 107 -16 157 -36 223 -89 72 -58 134 -81 219 -81 98 0
142 33 143 104 0 31 -6 44 -34 70 -25 22 -38 46 -46 80 -6 27 -16 58 -22 70
-16 31 -70 86 -85 86 -20 0 -53 38 -53 60 0 17 7 20 40 20 40 0 90 17 90 31 0
14 95 39 209 54 152 19 154 22 141 138 -20 169 30 235 60 80 7 -33 25 -83 42
-110 139 -228 131 -221 173 -179 17 17 25 39 30 89 11 99 13 100 213 107 164
5 194 11 221 44 17 21 26 15 118 -74 75 -74 76 -75 86 -50 44 106 79 171 112
205 31 32 40 37 43 23 5 -25 -23 -119 -65 -213 -20 -46 -37 -104 -40 -135 -7
-76 15 -103 106 -130 47 -14 82 -32 112 -58 l43 -39 -33 -32 c-18 -17 -37 -28
-43 -25 -12 7 -49 48 -86 94 l-19 24 -109 -39 c-205 -72 -301 -132 -339 -212
-9 -19 -20 -70 -25 -114 -6 -65 -12 -83 -29 -95 -15 -11 -21 -26 -21 -53 0
-25 -5 -41 -15 -45 -24 -9 -18 -49 15 -93 16 -22 35 -64 41 -93 19 -89 -9
-190 -54 -190 -59 0 -187 -133 -187 -193 0 -32 44 -74 92 -89 48 -14 68 -41
68 -91 0 -69 -10 -77 -99 -77 -90 0 -165 -22 -187 -55 -18 -28 -10 -53 47
-136 52 -77 89 -156 89 -192 0 -43 -25 -92 -73 -144 -53 -57 -68 -84 -69 -124
-1 -30 35 -79 58 -79 6 0 21 -8 33 -17 17 -15 18 -21 8 -34 -20 -27 -109 -79
-134 -79 -32 0 -80 -26 -93 -49 -26 -49 -14 -72 90 -173 133 -128 134 -156 10
-173 -59 -7 -119 -42 -148 -85 -20 -30 -23 -43 -19 -92 5 -56 4 -58 -18 -58
-15 0 -26 8 -30 20 -21 65 -296 34 -359 -41 -14 -17 -26 -36 -27 -42 -2 -50
-12 -104 -20 -112 -5 -5 -9 -1 -9 12 0 54 -92 105 -180 100 -32 -2 -35 1 -47
37 -18 53 -27 171 -19 240 6 43 14 63 34 81 24 22 27 32 26 88 -1 45 -8 77
-27 117 -30 63 -170 229 -346 410 l-121 125 -17 -25 c-38 -55 -100 -110 -126
-110 -14 0 -29 5 -33 11 -4 7 -10 73 -14 148 -5 101 -11 145 -24 171 -28 54
-191 208 -244 231 -64 28 -180 149 -221 233 -43 85 -99 148 -153 170 -24 10
-52 23 -63 28 -11 5 -34 30 -50 56 -16 26 -57 76 -90 112 -76 81 -107 127
-181 264 -72 134 -130 202 -186 216 -114 31 -519 61 -619 46 -32 -5 -66 -22
-115 -57 -68 -50 -70 -51 -124 -44 -89 10 -452 85 -479 98 -13 7 -39 39 -57
72 -47 85 -67 181 -62 309 4 126 13 140 104 162 103 24 147 19 238 -27 44 -23
93 -50 107 -60 15 -10 55 -32 90 -49 82 -38 136 -40 169 -5 13 14 33 25 45 25
28 0 86 39 126 84 106 121 203 281 224 368 21 88 19 129 -11 214 -37 107 -15
136 96 127 63 -4 60 -6 123 69 29 33 66 65 93 77 52 25 74 64 74 134 0 48 11
63 57 77 51 15 70 11 101 -24z m3748 -807 c7 -37 19 -80 28 -96 13 -26 89
-129 105 -143 18 -16 61 -82 75 -114 9 -21 44 -69 79 -105 39 -42 67 -82 75
-107 17 -57 70 -114 185 -199 56 -41 128 -94 160 -117 85 -62 124 -105 143
-154 25 -65 14 -121 -30 -161 -56 -51 -59 -64 -58 -218 0 -77 -4 -147 -8 -155
-4 -8 -29 -31 -55 -50 -47 -35 -75 -74 -75 -105 0 -40 195 -202 295 -245 79
-34 80 -58 11 -247 -14 -40 -29 -103 -34 -140 l-7 -68 -67 -36 c-37 -20 -98
-57 -135 -82 -37 -24 -92 -56 -120 -70 -106 -52 -241 -153 -406 -303 -139
-127 -187 -163 -229 -174 -21 -6 -43 -20 -48 -31 -6 -11 -58 -42 -114 -69
-121 -58 -123 -61 -128 -202 -2 -54 -7 -100 -11 -104 -4 -4 -36 3 -71 14 -36
12 -72 19 -80 16 -25 -10 -116 108 -116 152 0 14 -22 41 -65 79 -45 39 -65 64
-65 80 0 29 -44 65 -79 65 -14 0 -42 -9 -61 -19 -87 -48 -81 -47 -96 -26 -8
10 -14 38 -14 62 0 24 -6 56 -14 71 -15 28 -91 104 -163 161 l-43 34 86 43
c48 24 97 52 109 64 50 47 40 146 -20 193 -35 28 -47 67 -21 67 19 0 62 52 93
113 21 43 24 61 21 116 -5 80 -45 174 -94 222 -61 59 -48 73 72 82 97 7 161
52 185 129 25 78 -8 132 -110 183 -30 15 -50 30 -45 35 5 5 45 29 89 53 106
58 133 96 149 208 7 49 9 107 5 139 -7 47 -13 60 -45 87 l-38 31 32 36 c36 42
46 83 34 146 -11 61 1 101 45 144 36 35 179 111 254 135 76 25 79 24 141 -35
52 -50 62 -56 89 -50 101 20 151 144 91 225 -18 25 -120 93 -189 126 -18 9
-33 21 -33 28 0 6 23 75 51 153 l51 142 48 4 c33 3 59 13 81 32 22 19 41 26
62 24 30 -3 31 -6 43 -69z m-345 -202 c-25 -70 -45 -107 -36 -62 8 36 46 127
51 122 2 -2 -5 -29 -15 -60z m77 -172 c56 -31 111 -69 122 -83 34 -42 22 -44
-19 -3 -34 34 -129 81 -163 81 -17 0 -58 41 -58 57 0 8 3 12 8 10 4 -2 53 -30
110 -62z m-23 -180 c28 -33 55 -55 67 -55 11 0 38 17 59 39 32 32 39 35 39 19
0 -29 -54 -78 -85 -78 -20 0 -40 14 -74 50 -56 60 -80 63 -179 24 -124 -49
-221 -105 -261 -151 -23 -26 -37 -36 -34 -25 9 37 62 89 122 121 66 35 257
110 282 111 9 0 38 -25 64 -55z m-4969 -281 c21 -9 100 -27 174 -41 83 -15
142 -31 153 -41 14 -12 42 -18 96 -20 90 -5 149 9 190 43 52 45 92 55 208 55
78 0 406 -19 520 -30 0 0 28 -42 62 -94 72 -114 116 -199 126 -246 9 -44 22
-60 47 -60 26 0 78 -56 135 -145 54 -84 92 -119 153 -142 58 -21 83 -44 99
-90 7 -21 26 -51 42 -68 16 -16 46 -50 67 -74 20 -24 89 -84 153 -132 208
-157 259 -245 259 -450 0 -72 3 -82 25 -104 18 -19 35 -25 68 -25 61 0 107 18
117 46 8 21 12 22 38 13 45 -15 149 -111 269 -247 140 -160 155 -184 148 -241
-3 -24 -18 -65 -33 -90 -72 -117 -77 -189 -22 -309 39 -87 60 -226 60 -410 0
-153 17 -254 52 -304 12 -17 41 -35 78 -49 33 -12 60 -25 60 -30 0 -12 -66
-22 -104 -15 -25 5 -37 14 -46 35 -6 16 -27 43 -46 61 -41 41 -86 49 -196 36
-100 -11 -108 -8 -108 48 0 84 -33 134 -108 163 -43 16 -45 16 -58 -2 -8 -10
-14 -36 -14 -58 0 -46 -12 -71 -56 -113 -19 -17 -34 -41 -34 -52 0 -32 -17
-35 -24 -6 -9 34 1 77 28 129 18 35 21 56 21 165 -1 162 -10 184 -80 188 -88
6 -282 -38 -300 -68 -6 -10 -45 -15 -45 -6 0 3 9 21 21 40 12 21 22 61 26 103
7 92 -2 99 -111 94 -160 -9 -173 -7 -217 29 -96 77 -201 73 -291 -9 -85 -77
-132 -94 -195 -70 -15 5 -39 21 -53 34 -36 35 -123 70 -219 90 -46 9 -105 23
-132 31 -45 14 -49 17 -69 72 -30 79 -88 330 -99 432 -5 47 -14 97 -20 112
-15 40 -61 60 -120 52 -42 -5 -50 -3 -63 15 -16 22 -65 41 -107 41 -13 0 -34
11 -46 24 -20 22 -29 24 -77 19 -48 -5 -57 -2 -84 21 -51 42 -80 48 -185 41
-151 -10 -204 12 -216 91 -13 87 -86 111 -159 53 l-39 -30 -8 33 c-4 18 -24
83 -43 143 -23 72 -39 145 -45 209 -5 55 -17 116 -27 135 -14 30 -17 66 -16
221 0 102 4 215 8 253 10 89 21 95 119 67 40 -11 82 -20 93 -20 30 0 69 46
106 125 31 66 32 77 36 208 2 75 7 137 12 137 4 0 25 -7 46 -16z m4503 -75 c1
-9 -18 -44 -41 -79 l-42 -62 43 -37 c39 -33 44 -43 48 -88 7 -69 -14 -186 -41
-225 -13 -19 -51 -49 -91 -71 -138 -75 -146 -104 -43 -155 95 -48 120 -108 72
-176 -13 -19 -14 -15 -14 40 0 35 -6 68 -14 79 -7 10 -42 32 -77 49 -37 18
-65 38 -67 49 -8 41 116 167 164 167 32 0 63 42 76 103 16 76 -1 166 -42 224
l-31 43 20 26 c14 18 19 34 15 51 -5 18 -1 28 14 39 11 8 24 29 28 47 6 28 8
29 15 12 4 -11 8 -27 8 -36z m-2378 -873 c40 -45 46 -54 22 -38 -36 26 -83 78
-83 94 0 6 1 9 3 7 2 -2 28 -31 58 -63z m2092 -93 c-7 -2 -19 -2 -25 0 -7 3
-2 5 12 5 14 0 19 -2 13 -5z m-60 -13 c-45 -18 -38 -66 18 -125 38 -40 81
-138 87 -195 3 -36 -2 -58 -23 -101 -32 -63 -62 -99 -84 -99 -10 0 -2 13 21
38 21 20 44 54 53 74 32 78 15 143 -72 273 -29 44 -53 87 -53 97 0 19 37 48
60 47 9 0 7 -4 -7 -9z m-1782 -97 c110 -106 129 -136 135 -210 l4 -58 -13 45
c-30 100 -111 208 -211 281 -25 18 -33 29 -22 29 9 0 57 -39 107 -87z m615
-623 c74 -81 164 -189 164 -198 -1 -8 -2 -6 -163 176 -113 128 -188 195 -247
219 -45 19 -44 17 -24 48 l17 26 101 -108 c56 -59 124 -133 152 -163z m-452
165 c9 -14 14 -25 12 -25 -8 0 -36 31 -36 41 0 15 7 10 24 -16z m1593 -16 c0
-23 10 -40 41 -69 23 -21 42 -40 42 -43 0 -3 -25 8 -55 25 -58 31 -68 54 -45
99 14 26 17 24 17 -12z m-1472 11 c-3 -5 -14 -10 -23 -10 -15 0 -15 2 -2 10
20 13 33 13 25 0z m3608 -93 c60 -47 122 -116 132 -148 9 -27 109 -91 193
-123 82 -31 103 -60 157 -209 21 -56 48 -117 62 -134 22 -30 29 -33 77 -33 65
0 66 -1 66 -121 0 -82 2 -92 25 -114 13 -14 32 -25 42 -25 10 0 33 -9 51 -20
52 -32 42 -90 -23 -130 -42 -26 -92 -28 -165 -6 -45 14 -81 16 -200 11 -120
-6 -168 -3 -279 14 -205 32 -290 27 -320 -20 -7 -12 -15 -47 -18 -78 -3 -31
-10 -64 -15 -74 -13 -25 -75 -52 -166 -72 -81 -19 -123 -47 -149 -102 -46 -97
-262 -191 -673 -293 -107 -27 -224 -58 -260 -69 -35 -11 -66 -19 -68 -17 -1 2
13 30 33 62 44 74 44 102 1 159 -44 57 -51 105 -51 337 0 127 4 181 12 189 10
10 24 8 67 -10 127 -52 154 -30 165 141 5 74 11 102 25 117 11 12 75 50 144
87 170 89 230 132 342 240 149 145 224 199 463 334 71 40 143 84 160 100 74
63 97 64 170 7z m-2070 -129 c-19 -22 -221 -124 -229 -115 -15 14 15 39 65 53
62 18 158 75 169 102 6 16 7 16 10 -1 2 -10 -5 -28 -15 -39z m-3447 36 c12 -3
26 -16 32 -30 12 -25 36 -194 29 -201 -3 -2 -8 18 -11 44 -18 128 -43 172 -98
174 -22 0 -22 1 -3 9 25 11 26 11 51 4z m-17 -58 c7 -8 21 -61 32 -118 52
-270 62 -318 84 -381 44 -129 92 -166 247 -193 114 -20 147 -33 208 -84 60
-51 107 -70 167 -70 71 0 128 32 169 96 19 29 43 58 53 64 45 24 115 6 156
-40 34 -39 77 -50 190 -50 118 0 116 2 79 -72 -30 -58 -9 -129 46 -162 48 -28
110 -15 110 24 0 30 28 50 71 50 22 0 71 5 110 11 38 7 72 9 75 6 8 -8 -13
-134 -47 -279 -27 -116 -28 -131 -16 -161 16 -37 70 -87 95 -87 24 0 104 90
137 156 l29 58 16 -75 16 -74 145 -6 c153 -7 165 -10 237 -65 42 -31 97 -56
153 -68 15 -3 31 -17 38 -32 10 -23 41 -195 41 -231 0 -43 -307 30 -407 96
-60 40 -92 39 -205 -5 -107 -42 -221 -68 -368 -84 -169 -18 -397 -27 -474 -17
-140 18 -173 14 -261 -30 -103 -52 -164 -65 -291 -65 -102 0 -106 0 -187 41
-45 22 -90 41 -100 41 -34 0 -81 32 -171 119 -96 90 -136 116 -199 126 -20 3
-68 22 -105 41 -113 60 -136 66 -313 74 -117 6 -175 13 -195 23 -16 9 -62 49
-103 90 l-73 75 27 83 c15 46 42 116 60 154 37 80 159 247 255 350 36 39 84
93 107 121 84 102 172 275 188 369 14 82 37 161 52 178 20 22 105 24 122 3z
m3415 -264 c54 -53 69 -82 60 -118 -8 -30 12 -81 37 -94 28 -16 52 -12 90 14
64 44 103 39 127 -17 13 -29 37 -56 71 -81 32 -24 53 -47 57 -64 10 -48 31
-86 74 -134 33 -39 48 -48 74 -48 18 0 54 -7 80 -16 26 -9 60 -14 76 -12 32 5
37 -1 18 -20 -17 -17 -50 -15 -99 8 -59 27 -95 26 -111 -2 -8 -15 -14 -84 -16
-198 -4 -193 11 -304 48 -350 44 -54 46 -69 21 -114 -63 -108 -66 -118 -47
-131 14 -11 8 -14 -40 -20 -124 -15 -214 -61 -214 -109 0 -31 33 -58 124 -101
142 -67 258 -206 376 -452 59 -122 91 -160 123 -147 20 7 31 62 23 112 l-7 37
25 -41 c15 -23 39 -47 57 -54 l31 -13 -39 -19 c-48 -23 -61 -40 -69 -94 -3
-24 -10 -44 -15 -44 -15 0 -59 79 -135 243 -48 104 -93 185 -128 231 -95 124
-203 216 -253 216 -14 0 -47 12 -73 27 -45 25 -50 26 -91 14 -49 -15 -179
-136 -179 -167 0 -10 12 -30 26 -46 l27 -27 -22 -62 c-43 -117 -27 -186 41
-172 21 4 50 -4 109 -32 50 -23 143 -52 247 -77 170 -41 192 -52 192 -94 0
-23 -2 -22 -74 17 -86 46 -174 77 -306 108 -157 36 -198 50 -244 85 -63 48
-80 56 -149 67 -34 5 -104 24 -156 40 -200 67 -284 2 -199 -152 27 -49 31 -63
22 -86 -13 -38 -56 -64 -156 -96 -52 -17 -94 -37 -108 -52 l-24 -25 21 -28
c11 -15 37 -37 59 -49 49 -28 27 -30 -27 -3 -103 53 -61 139 92 189 90 29 113
52 107 105 -7 61 -47 163 -76 191 -48 48 -79 29 -150 -90 -41 -69 -55 -84
-107 -113 -33 -18 -80 -53 -105 -77 -51 -49 -178 -114 -241 -122 -44 -6 -59 4
-59 42 0 18 1 18 16 -3 22 -33 76 -29 160 12 48 23 83 49 112 82 24 27 73 69
110 94 55 37 72 55 95 102 20 43 42 68 83 99 31 22 62 55 69 72 12 29 13 29
24 10 16 -30 64 -43 131 -36 51 5 65 2 111 -21 66 -35 178 -59 238 -51 78 11
99 23 116 69 20 51 10 84 -34 116 -17 12 -31 30 -31 40 0 35 147 139 233 164
13 4 17 16 17 49 0 67 -26 141 -100 282 -37 72 -73 147 -80 168 -16 50 -40 61
-135 61 -61 0 -92 -5 -129 -22 -27 -12 -56 -22 -65 -22 -9 0 -34 18 -55 40
-68 72 -138 46 -151 -58 -9 -70 -15 -92 -23 -92 -4 0 -5 22 -4 49 4 54 -22
293 -39 355 -10 38 -42 78 -70 88 -8 3 -11 9 -7 13 14 15 74 -35 96 -79 13
-25 25 -74 29 -111 7 -74 24 -95 80 -95 36 0 83 -18 83 -32 0 -16 49 -58 68
-58 11 0 46 18 78 40 65 44 79 47 142 25 65 -23 94 -5 249 150 74 74 137 135
140 135 2 0 -6 -19 -19 -41 -13 -23 -65 -80 -116 -127 -103 -95 -122 -122
-122 -180 0 -76 87 -272 152 -338 66 -69 154 -49 266 61 l73 71 -36 100 c-58
159 -75 244 -75 379 0 66 -4 126 -9 134 -5 8 -19 12 -35 9 -32 -6 -32 -5 0 37
37 49 34 86 -9 134 -20 22 -41 58 -47 81 -14 52 -58 101 -110 125 -35 16 -46
17 -74 7 -43 -16 -73 -15 -143 3 -97 25 -235 14 -275 -22 -14 -12 -18 -32 -18
-82 0 -48 -5 -75 -20 -98 -24 -40 -30 -40 -61 -7 -31 33 -55 46 -104 55 -83
15 -225 -29 -254 -79 -9 -15 -10 -13 -11 9 0 14 8 33 18 41 41 36 199 71 269
61 19 -3 38 -15 48 -29 11 -17 25 -24 49 -24 47 0 59 19 51 79 -5 39 -3 57 11
80 22 38 76 68 139 76 66 8 92 22 102 54 16 48 3 69 -93 157 -52 47 -94 91
-94 96 0 11 102 -71 174 -140z m-949 27 c6 -40 4 -49 -20 -77 -35 -42 -45 -81
-45 -177 0 -94 19 -192 43 -229 16 -23 22 -25 57 -20 73 12 150 -20 150 -62 0
-10 -14 -4 -46 21 -52 39 -99 47 -108 17 -15 -47 -25 -182 -26 -335 0 -196 5
-214 78 -251 53 -28 51 -33 -5 -11 -22 9 -49 31 -63 51 -24 36 -25 44 -31 273
-8 264 -14 308 -61 419 -46 109 -44 153 13 261 36 69 44 95 44 137 0 60 10 51
20 -17z m-2339 -123 c19 -77 43 -159 54 -183 23 -52 52 -66 185 -94 151 -31
150 -30 253 -102 79 -55 173 -43 249 32 49 49 80 67 123 74 31 5 32 5 10 -4
-69 -29 -89 -44 -119 -90 -40 -62 -82 -89 -139 -89 -55 0 -96 18 -152 65 -61
51 -108 71 -220 90 -143 25 -178 51 -223 165 -19 49 -68 269 -66 298 1 13 2
13 6 -3 2 -11 20 -83 39 -159z m3390 -171 c57 -14 65 -14 102 0 38 16 42 15
80 -4 48 -24 77 -62 86 -112 4 -21 20 -48 41 -69 64 -62 51 -86 -180 -319
l-173 -174 -48 7 c-130 20 -123 20 -162 -11 -20 -16 -48 -36 -61 -43 -23 -12
-27 -10 -55 23 -38 43 -64 57 -108 57 -48 0 -54 8 -61 78 -13 125 -80 208
-179 221 -39 5 -52 11 -49 21 2 8 9 37 15 64 20 81 80 116 199 116 63 0 99
-14 136 -54 32 -34 53 -33 85 4 32 39 48 97 40 148 -4 24 -2 42 5 46 45 28
183 28 287 1z m-2377 -150 c50 -40 47 -39 201 -40 94 0 115 -3 118 -15 2 -13
-16 -14 -135 -10 -141 5 -163 11 -198 50 -11 13 -38 32 -60 42 l-40 19 34 -5
c19 -4 55 -22 80 -41z m5873 14 c133 -15 170 -29 235 -90 52 -49 56 -51 97
-46 36 5 49 2 77 -18 23 -18 46 -25 78 -25 40 0 48 5 86 45 l41 45 40 -14 c55
-19 218 -102 283 -143 88 -57 93 -57 179 -21 112 46 186 45 307 -6 181 -77
258 -106 294 -112 60 -10 69 -14 74 -34 3 -11 26 -32 52 -47 26 -16 59 -38 73
-49 32 -26 24 -39 -43 -79 -61 -35 -85 -69 -85 -120 0 -36 5 -48 34 -72 18
-17 53 -35 78 -41 63 -16 145 -74 270 -191 59 -55 121 -107 138 -116 29 -15
33 -15 64 4 50 31 106 28 144 -9 19 -18 42 -30 59 -30 65 0 82 -64 33 -125
-39 -49 -47 -82 -26 -103 8 -9 46 -34 83 -57 79 -47 86 -68 27 -75 -23 -4 -53
-14 -68 -24 -34 -22 -49 -17 -122 40 -32 25 -84 59 -114 74 -69 35 -126 96
-164 175 -23 47 -63 94 -185 216 -86 85 -194 185 -241 221 -114 88 -393 242
-440 242 -26 0 -57 -14 -124 -58 -163 -107 -326 -166 -464 -166 -88 0 -112
-25 -135 -136 -35 -177 -49 -189 -232 -189 -110 0 -148 5 -246 29 -64 16 -125
26 -134 22 -17 -6 -18 -18 -11 -149 7 -154 30 -393 48 -497 9 -58 15 -70 57
-110 26 -25 87 -69 136 -99 111 -67 246 -199 298 -291 20 -36 43 -95 52 -130
15 -63 42 -162 52 -187 4 -10 -11 -13 -55 -13 -71 0 -92 6 -92 29 0 74 -69
159 -151 186 -45 15 -51 15 -91 -3 -27 -11 -54 -34 -72 -60 -32 -47 -46 -53
-46 -19 0 53 -23 99 -71 145 -27 25 -49 54 -49 64 0 57 -154 73 -248 27 l-52
-26 0 31 c-1 78 -83 170 -164 183 -36 6 -42 3 -68 -27 l-27 -34 -88 42 c-49
23 -98 42 -109 42 -31 0 -74 -38 -74 -64 0 -13 25 -56 55 -97 30 -41 59 -87
65 -104 l10 -30 -26 30 c-15 17 -45 59 -68 95 -49 77 -73 86 -117 44 -42 -40
-45 -77 -15 -192 34 -133 34 -136 -6 -128 -44 9 -157 63 -292 140 -126 72
-268 139 -470 221 -77 31 -176 75 -219 97 -44 22 -109 45 -146 52 -103 20
-197 76 -245 145 -25 35 -28 48 -24 92 3 32 12 58 25 70 19 20 20 20 46 -1 14
-12 50 -26 79 -32 69 -14 124 6 141 53 12 30 12 30 70 24 46 -6 63 -4 85 11
15 10 55 21 90 25 105 11 103 8 206 349 80 264 89 318 84 523 -4 182 -4 183
-89 295 -52 67 -59 86 -33 96 27 10 57 7 113 -15 44 -16 94 -22 240 -30 166
-9 311 -21 424 -36 76 -10 198 45 236 108 11 18 22 26 25 20 11 -18 62 -12 81
9 9 10 20 40 22 65 l6 45 79 -6 79 -7 47 50 c76 80 75 80 244 62z m-5561 -157
c-6 -21 -20 -49 -31 -62 -26 -30 -25 -23 7 57 28 70 42 73 24 5z m1166 -13
c37 -34 90 -72 118 -86 121 -60 121 -60 134 -105 13 -51 41 -275 41 -334 0
-24 -6 -49 -15 -57 -8 -8 -54 -22 -102 -31 -108 -20 -102 -20 -96 4 9 33 -21
64 -101 105 -42 21 -82 45 -88 52 -16 20 -21 229 -8 343 17 152 21 170 36 170
7 0 44 -28 81 -61z m100 -19 c-2 -24 -10 -25 -26 -6 -10 11 -8 15 6 19 10 3
19 5 20 6 1 0 1 -8 0 -19z m-937 -24 c0 -6 -161 -28 -167 -23 -2 3 19 10 49
15 56 10 118 15 118 8z m2095 -103 c-9 -106 14 -241 66 -388 l42 -117 -59 -59
c-32 -32 -72 -65 -90 -74 -39 -18 -94 -20 -116 -2 -53 42 -147 235 -156 320
l-5 48 114 114 c72 72 124 133 140 165 24 49 43 69 63 70 4 0 5 -35 1 -77z
m-2407 27 c18 0 32 4 32 9 0 5 6 11 14 14 12 5 13 1 1 -26 -7 -18 -21 -33 -30
-35 -21 -5 -61 22 -76 50 -12 22 -11 22 8 6 11 -10 34 -18 51 -18z m367 -134
c-4 -52 -14 -92 -26 -112 -37 -61 -34 -165 6 -180 19 -8 55 23 55 47 0 10 18
35 40 56 36 34 42 45 47 96 6 62 14 67 63 42 39 -20 60 -63 60 -123 0 -49 12
-75 40 -85 8 -3 -4 -6 -26 -6 l-41 -1 -13 63 c-6 34 -18 77 -26 96 -11 27 -17
31 -28 22 -8 -7 -17 -25 -21 -40 -7 -34 -65 -124 -108 -169 l-31 -32 -33 32
c-41 40 -42 63 -8 195 14 54 28 124 32 157 10 93 27 41 18 -58z m3563 81 c12
-17 38 -52 56 -77 52 -68 59 -105 54 -307 -4 -147 -9 -192 -28 -261 -13 -45
-25 -80 -27 -78 -2 2 1 41 7 87 6 46 14 167 17 269 6 204 -1 255 -43 297 -32
32 -57 24 -114 -37 -46 -49 -53 -52 -193 -75 -48 -8 -73 -32 -87 -85 -10 -38
-17 -44 -75 -70 -34 -15 -67 -35 -72 -43 -11 -19 -56 -41 -124 -61 -85 -24
-98 -39 -101 -116 l-3 -65 -50 -23 c-27 -13 -58 -31 -68 -40 -17 -15 -17 -14
-9 9 5 13 25 32 44 41 19 9 40 23 47 32 18 21 6 65 -20 75 -25 9 -265 -36
-417 -78 -59 -17 -127 -32 -152 -36 l-45 -6 31 15 c17 7 140 41 272 75 132 33
290 77 351 96 201 65 360 160 391 234 16 41 44 56 138 80 136 34 182 70 182
142 0 47 8 49 38 6z m38 -133 c15 -39 16 -68 11 -222 -9 -235 -31 -421 -57
-472 -11 -22 -31 -82 -45 -132 -28 -107 -42 -122 -116 -132 -28 -4 -71 -16
-95 -28 -36 -16 -55 -19 -99 -13 -54 6 -56 6 -97 -34 -22 -23 -45 -41 -49 -41
-5 0 -31 9 -59 20 -107 42 -140 21 -167 -104 -23 -105 -36 -118 -111 -110 -77
8 -123 32 -146 75 -25 47 -18 70 49 166 115 165 110 151 111 303 0 74 2 140 2
147 1 6 22 19 46 28 73 28 86 46 86 120 l0 63 45 16 c25 9 66 23 92 32 25 9
60 30 76 45 17 16 47 34 68 39 40 11 89 60 89 90 0 38 32 60 104 71 93 15 129
32 167 79 45 56 72 54 95 -6z m-2331 -164 c46 -47 70 -50 140 -19 34 15 69 21
122 22 84 0 91 -4 116 -73 9 -25 37 -81 62 -124 58 -103 97 -199 103 -257 4
-44 3 -47 -24 -53 -65 -17 -234 -148 -234 -183 0 -7 18 -33 40 -57 43 -47 50
-78 24 -115 -16 -22 -21 -23 -118 -19 -90 3 -108 6 -168 36 -60 30 -74 33
-141 31 -82 -3 -107 8 -107 46 0 12 7 28 16 36 18 15 44 63 44 82 0 7 -6 22
-14 32 -12 16 -25 19 -80 17 -60 -2 -69 0 -90 23 -37 40 -57 109 -63 226 l-6
106 69 23 c94 31 161 66 178 93 7 12 17 46 20 76 4 30 12 63 17 73 16 30 52
21 94 -22z m-3906 -80 c86 -102 168 -131 374 -131 l148 1 49 -34 c27 -19 71
-42 97 -51 94 -33 193 -88 260 -144 116 -96 146 -117 223 -156 105 -53 265
-105 325 -106 78 -1 226 57 313 122 29 22 68 43 87 46 29 5 38 1 67 -30 55
-60 141 -77 184 -36 19 18 41 22 161 29 153 10 263 26 478 70 178 37 213 37
282 4 37 -18 81 -29 140 -35 167 -17 311 -67 368 -128 17 -18 45 -39 63 -46
29 -13 32 -18 32 -58 0 -48 -17 -71 -80 -110 -22 -14 -44 -41 -60 -74 -33 -66
-62 -97 -123 -130 -28 -16 -62 -46 -82 -74 -25 -35 -51 -56 -106 -83 -106 -53
-139 -47 -139 26 0 41 -34 88 -64 88 -9 0 -41 23 -71 50 -58 53 -79 59 -111
35 -29 -22 -47 -18 -121 21 -93 49 -141 46 -244 -18 -100 -62 -147 -84 -194
-92 -22 -4 -51 -18 -65 -31 -25 -24 -196 -115 -280 -149 -69 -28 -238 -114
-278 -141 -42 -29 -66 -31 -115 -10 -72 30 -185 11 -225 -38 -33 -39 -166 42
-187 113 -24 83 -47 86 -250 35 -266 -67 -309 -87 -427 -202 l-86 -85 -57 86
c-31 47 -71 97 -88 112 -17 14 -39 43 -48 63 -9 20 -43 68 -74 106 -94 115
-135 173 -154 218 -10 23 -43 71 -73 107 -30 36 -67 83 -80 105 -24 39 -54 64
-156 136 -58 41 -89 107 -73 158 9 31 19 40 79 68 119 56 231 196 283 355 21
63 35 88 49 88 4 0 26 -22 49 -50z m3168 37 c19 -10 73 -73 73 -84 0 -2 -17
10 -37 26 -44 35 -100 50 -198 52 -66 2 -67 2 -25 9 74 12 164 10 187 -3z
m295 -96 c-3 -44 27 -57 98 -42 75 16 73 7 -4 -19 -36 -12 -66 -25 -66 -28 2
-93 24 -252 40 -296 31 -81 65 -106 145 -106 35 0 67 -5 70 -11 4 -6 -8 -33
-26 -60 l-34 -49 -8 30 c-5 20 -17 34 -35 41 -15 6 -43 25 -62 44 -36 35 -137
86 -200 101 -34 8 -33 9 25 14 l60 5 -2 75 c-3 97 -29 213 -52 234 -11 10 -32
21 -47 26 -23 6 -24 8 -8 9 35 2 82 21 88 37 3 9 -6 26 -22 41 l-27 27 35 -21
c30 -17 35 -25 32 -52z m-3057 -36 c20 -7 -171 -3 -195 4 -14 4 22 6 80 4 58
-3 110 -6 115 -8z m238 -59 c34 -19 85 -40 112 -47 74 -18 113 -41 183 -108
75 -74 82 -91 11 -27 -61 55 -153 108 -234 136 -75 26 -169 80 -139 80 3 0 33
-15 67 -34z m4765 -45 c-2 -9 -19 -23 -39 -33 -60 -28 -62 -35 -70 -215 l-8
-165 -49 -51 c-26 -29 -63 -82 -82 -120 -33 -67 -33 -69 -26 -167 9 -151 -2
-146 -93 36 -126 256 -237 386 -394 462 -48 23 -90 49 -94 58 -15 40 69 78
199 89 95 8 168 22 248 47 86 26 382 86 398 80 7 -2 12 -12 10 -21z m-2387
-131 c43 -29 157 -71 232 -85 66 -13 34 -15 -59 -5 -60 7 -105 18 -137 35 -66
34 -120 32 -335 -9 -223 -44 -296 -54 -455 -65 -107 -7 -134 -12 -158 -30 -15
-11 -37 -21 -47 -21 -36 0 -81 22 -97 47 l-17 25 64 -7 c73 -8 355 9 510 31
133 18 230 43 328 83 95 38 117 38 171 1z m-1990 -67 c13 -16 12 -17 -3 -4
-17 13 -22 21 -14 21 2 0 10 -8 17 -17z m107 -53 c10 0 48 -15 84 -34 143 -77
346 -71 508 13 70 37 80 38 54 10 -41 -46 -239 -129 -306 -129 -72 0 -321 94
-383 145 -20 16 -20 16 2 6 12 -6 30 -11 41 -11z m2199 14 c-3 -3 -12 -4 -19
-1 -8 3 -5 6 6 6 11 1 17 -2 13 -5z m1988 -176 c-11 -25 -14 -27 -10 -8 3 14
9 61 13 105 l7 80 3 -72 c2 -49 -2 -82 -13 -105z m871 61 c-13 -40 -24 -67
-25 -58 -1 24 38 143 45 136 2 -2 -7 -37 -20 -78z m-1641 36 c22 -14 49 -25
60 -25 24 0 88 -33 86 -44 -1 -4 23 -26 52 -49 86 -66 157 -170 243 -360 49
-106 91 -184 116 -211 24 -28 36 -50 32 -60 -9 -23 -41 -20 -54 5 -7 11 -40
33 -74 49 -61 27 -76 43 -76 80 0 46 -31 62 -209 106 -104 25 -201 56 -247 78
-47 22 -91 36 -115 36 -38 0 -39 1 -39 38 0 20 9 61 20 90 26 68 25 84 -6 115
l-26 26 31 39 c45 58 119 110 156 111 6 0 28 -11 50 -24z m691 -224 c-31 -44
-63 -95 -72 -113 l-15 -33 6 34 c6 40 54 123 98 168 50 53 43 30 -17 -56z
m890 10 c-21 -39 -44 -51 -98 -51 -25 0 -60 -9 -82 -21 -31 -16 -49 -19 -86
-14 -56 8 -87 -5 -92 -37 -7 -53 -113 -61 -178 -13 -31 23 -50 23 -77 2 -16
-12 -17 -2 -3 24 13 24 36 24 100 -1 71 -28 86 -26 130 19 39 39 40 39 99 34
47 -4 66 -2 86 11 15 10 58 23 97 31 44 8 78 21 91 34 27 27 32 20 13 -18z
m-2175 -127 c41 -14 112 -32 158 -39 70 -12 92 -21 135 -53 72 -55 82 -59 208
-88 241 -53 371 -110 478 -209 39 -35 79 -67 90 -70 27 -9 26 -56 -1 -81 -11
-10 -39 -28 -62 -40 -56 -28 -69 -54 -65 -136 5 -94 26 -121 101 -129 73 -8
98 -26 138 -96 45 -80 94 -145 173 -231 39 -42 69 -85 73 -103 3 -17 18 -38
35 -50 20 -14 47 -60 87 -144 57 -120 104 -198 140 -233 29 -28 104 -133 171
-242 l62 -101 -23 -62 c-30 -82 -74 -170 -92 -186 -19 -15 -63 5 -152 71 -108
79 -178 124 -310 198 -257 143 -395 267 -395 354 -1 52 -34 110 -115 197 -42
46 -86 102 -97 124 -11 22 -57 98 -101 168 l-82 128 -296 -7 c-242 -5 -298 -3
-305 7 -4 8 -11 106 -16 219 -12 331 -14 335 -168 355 -62 8 -165 64 -165 90
0 16 19 27 105 57 82 29 112 45 138 72 40 45 41 75 2 146 -69 129 -13 171 151
114z m-262 -49 c12 -25 27 -68 33 -95 14 -63 7 -72 -80 -101 -98 -32 -143 -65
-163 -118 -22 -56 22 -119 99 -142 88 -26 76 -60 -50 -144 -119 -80 -167 -124
-221 -205 -56 -83 -74 -101 -129 -130 -84 -45 -182 -30 -214 32 -25 47 -89 62
-145 32 -46 -24 -77 -101 -94 -236 -8 -62 -21 -169 -30 -237 -15 -116 -53
-261 -79 -296 -8 -12 -55 -19 -206 -30 -107 -8 -238 -15 -290 -15 -101 0 -95
-2 -220 68 -38 21 -84 35 -150 46 -52 9 -138 29 -190 46 -126 40 -147 39 -192
-7 -39 -40 -68 -97 -68 -133 0 -35 -60 -53 -160 -48 -104 5 -156 30 -190 92
-28 50 -77 113 -148 188 -53 56 -53 57 -37 82 12 18 15 36 11 58 -9 45 -72
148 -146 238 -131 161 -150 186 -150 201 0 10 -18 41 -40 70 -22 30 -40 57
-40 60 0 12 80 111 120 149 81 78 213 121 413 136 99 8 107 4 107 -53 0 -42
19 -59 79 -72 27 -6 65 -20 83 -31 47 -29 84 -26 119 9 35 36 94 47 159 32
101 -23 127 -16 278 77 49 30 107 56 139 63 37 9 70 25 101 51 26 21 57 38 70
38 30 0 84 23 101 43 7 10 24 17 36 17 13 0 94 36 181 81 154 79 160 81 219
77 45 -3 70 -11 100 -31 44 -30 76 -34 95 -12 18 22 26 19 89 -30 31 -25 63
-45 69 -45 15 0 28 -31 37 -81 3 -21 12 -43 20 -49 43 -36 241 39 330 124 28
27 68 57 90 68 56 28 81 54 122 123 71 119 92 125 132 40z m-1014 -63 c62 -37
79 -40 132 -23 l42 14 42 -37 c23 -21 58 -45 78 -53 41 -17 51 -29 50 -58 0
-11 -3 -14 -6 -7 -3 7 -19 20 -36 28 -18 9 -55 34 -83 55 -54 42 -87 48 -115
23 -16 -14 -22 -13 -71 15 -43 24 -67 31 -110 31 -69 0 -107 -14 -233 -84 -55
-31 -118 -61 -140 -67 -43 -12 -49 -14 -88 -42 -13 -10 -42 -20 -63 -23 -38
-5 -38 -5 21 26 33 18 74 44 91 59 17 16 53 32 86 39 31 7 82 29 114 49 141
86 157 94 199 90 22 -2 63 -18 90 -35z m2853 -136 c9 -10 44 -37 77 -59 55
-36 57 -39 26 -33 -18 3 -42 17 -52 30 -12 15 -41 30 -84 41 -36 10 -79 28
-95 40 l-31 23 36 6 c25 5 39 15 47 32 l11 24 24 -42 c14 -24 32 -52 41 -62z
m-181 7 c3 -7 9 -11 13 -8 4 3 13 -2 20 -10 7 -8 44 -24 84 -36 46 -13 78 -29
92 -45 15 -18 39 -29 86 -39 36 -7 88 -24 114 -38 27 -13 99 -43 159 -66 61
-23 130 -50 154 -59 24 -9 42 -21 41 -26 -3 -13 52 -46 78 -46 42 0 307 -122
294 -135 -4 -5 -1 -5 5 -1 13 7 214 -93 305 -151 l47 -30 -35 -16 c-64 -31
-68 -110 -9 -173 22 -23 41 -34 61 -34 41 0 123 -41 162 -80 30 -30 32 -34 18
-49 -12 -11 -19 -12 -27 -4 -6 6 -17 9 -24 6 -17 -6 -56 15 -133 71 -38 28
-60 51 -56 58 4 6 3 8 -4 4 -6 -3 -16 -1 -24 6 -23 22 -102 73 -131 86 -43 18
-104 15 -126 -7 -33 -33 -62 -196 -43 -243 4 -9 39 -50 78 -90 76 -78 99 -112
88 -130 -4 -7 -3 -8 4 -4 7 4 14 -4 18 -21 27 -121 49 -169 103 -227 36 -39
36 -39 -26 9 -35 26 -60 52 -56 58 3 5 2 7 -4 4 -12 -8 -58 40 -67 69 -19 63
-128 131 -200 125 -122 -11 -149 -7 -226 32 -41 21 -103 64 -138 95 -115 105
-143 127 -194 155 -58 31 -82 33 -126 12 -52 -26 -50 -102 4 -160 53 -56 81
-105 52 -90 -7 4 -6 0 3 -7 15 -12 15 -16 2 -42 -19 -36 -13 -75 21 -145 14
-30 23 -58 19 -64 -4 -6 -1 -7 7 -2 10 6 12 4 7 -8 -4 -10 -2 -16 5 -14 15 3
57 -100 58 -140 0 -24 -5 -33 -16 -33 -14 0 -29 26 -23 40 1 3 -19 36 -44 73
-51 75 -55 82 -31 73 9 -3 12 -2 9 4 -4 6 -14 9 -23 8 -13 -2 -16 3 -14 22 1
17 -1 21 -7 11 -6 -10 -19 2 -49 44 -23 32 -39 62 -36 66 3 5 1 9 -4 9 -13 0
-59 73 -122 194 -54 104 -85 153 -110 173 -8 6 -15 15 -15 20 -1 20 -32 62
-85 113 -31 30 -69 75 -85 100 -15 25 -45 71 -67 103 -22 32 -36 63 -32 70 5
9 4 9 -6 0 -9 -8 -20 -5 -47 13 -20 13 -40 24 -45 24 -5 0 -6 4 -3 10 3 5 0 7
-8 4 -22 -8 -40 22 -32 53 8 34 131 157 147 147 6 -4 8 -3 4 4 -3 6 5 28 19
48 25 37 26 42 19 133 -5 64 -4 92 3 88 6 -4 10 1 9 10 -2 34 129 57 141 26z
m578 -188 c61 -28 121 -57 135 -63 l25 -12 -25 6 c-34 8 -189 70 -263 105 -59
27 -60 28 -22 23 22 -4 90 -30 150 -59z m-922 41 c18 -7 40 -25 49 -38 21 -32
49 -40 82 -22 59 30 19 -35 -77 -124 -65 -62 -89 -103 -85 -149 2 -30 10 -42
36 -58 113 -69 126 -81 175 -164 28 -46 84 -119 124 -162 40 -43 73 -84 73
-91 0 -7 -29 19 -65 57 -60 65 -87 102 -168 229 -43 66 -71 85 -142 94 -57 7
-61 9 -72 42 -20 59 -16 126 9 150 12 11 27 20 34 20 20 0 76 52 89 83 18 44
8 64 -51 103 -69 46 -73 56 -11 30z m-1215 -213 c15 -29 21 -78 32 -253 12
-195 24 -266 48 -275 38 -15 258 -24 422 -19 202 8 175 20 259 -115 49 -78 87
-129 221 -299 47 -59 50 -67 50 -121 0 -86 38 -157 98 -182 25 -11 80 -50 121
-86 42 -37 101 -77 131 -90 139 -60 234 -117 286 -172 15 -17 42 -33 59 -37
16 -3 42 -21 57 -39 15 -17 59 -49 97 -69 39 -20 75 -46 81 -56 15 -28 -14
-159 -52 -231 -28 -54 -30 -61 -18 -90 15 -35 60 -59 110 -59 43 0 37 -13 -21
-45 -96 -52 -109 -81 -60 -137 48 -55 53 -73 52 -181 -1 -56 4 -116 10 -134
10 -32 12 -33 65 -33 49 0 54 -2 60 -26 15 -59 -11 -159 -57 -216 -46 -56 -19
-194 40 -208 16 -4 34 -24 54 -60 49 -92 140 -220 169 -238 23 -14 30 -14 55
-2 15 8 31 16 36 18 17 9 4 -16 -28 -53 -44 -50 -63 -90 -75 -156 -11 -58 -42
-114 -72 -130 -22 -12 -21 -13 -239 222 -117 126 -155 176 -198 262 -39 77
-70 83 -176 30 -54 -26 -56 -26 -91 -10 -19 9 -46 17 -60 17 -58 0 -137 -61
-237 -180 -94 -113 -165 -187 -202 -210 -16 -10 -61 -26 -99 -34 -89 -21 -164
-61 -258 -140 -55 -46 -88 -66 -117 -71 -45 -7 -157 12 -336 57 -187 49 -228
45 -464 -35 l-194 -67 -39 32 c-56 44 -295 304 -329 357 -16 24 -42 56 -57 70
-36 32 -72 117 -79 185 -5 51 -3 61 56 219 34 91 52 191 60 334 l8 132 37 42
c48 53 96 153 96 201 0 21 -9 60 -20 88 -11 28 -20 59 -20 70 0 10 22 44 49
75 65 74 71 100 33 135 -25 22 -31 38 -37 91 -11 100 -25 124 -89 154 -34 16
-94 62 -156 120 -105 99 -163 138 -218 150 -18 4 -60 29 -94 56 -41 32 -71 49
-89 49 -25 0 -29 5 -39 43 -18 73 -32 91 -85 108 -87 30 -68 39 77 39 150 0
200 10 241 48 63 59 93 162 127 437 28 229 53 335 79 335 5 0 30 -20 57 -45
84 -80 188 -94 293 -40 50 25 85 63 155 168 49 73 107 122 199 172 40 21 100
62 135 92 35 29 68 53 72 53 5 0 13 -8 18 -17z m409 -489 l288 7 76 -118 c80
-122 103 -163 95 -163 -3 0 -42 56 -87 125 l-81 124 -282 0 c-288 -1 -336 5
-336 37 0 16 2 16 20 -1 18 -17 39 -17 307 -11z m1262 -217 l23 -42 -26 28
c-15 15 -30 27 -34 27 -4 0 -12 16 -18 35 l-11 36 22 -21 c12 -11 32 -39 44
-63z m62 -109 c39 -78 117 -202 199 -318 78 -110 116 -170 106 -170 -2 0 -29
37 -59 83 -31 45 -79 109 -107 142 -41 48 -170 275 -170 299 0 16 12 2 31 -36z
m-685 -165 c14 -23 27 -61 30 -85 11 -89 98 -187 265 -296 48 -32 95 -63 105
-69 16 -11 15 -11 -8 -3 -60 20 -111 53 -175 111 -37 34 -88 71 -112 83 -65
31 -83 61 -91 155 -7 77 -10 85 -55 144 -37 48 -41 55 -15 32 17 -16 43 -49
56 -72z m-3296 -73 c50 -40 83 -52 173 -61 113 -11 143 -21 230 -71 88 -51
138 -68 203 -68 29 0 64 -4 77 -9 46 -18 95 -70 111 -119 17 -50 39 -70 96
-88 22 -7 40 -21 48 -38 19 -38 63 -62 141 -77 69 -13 89 -27 150 -109 14 -18
40 -39 59 -47 19 -8 52 -34 74 -58 22 -24 53 -49 70 -56 33 -14 48 -43 48 -97
0 -20 7 -48 15 -62 8 -14 17 -31 21 -39 4 -8 -5 -35 -21 -64 -40 -71 -46 -110
-34 -199 13 -92 9 -112 -31 -164 -17 -21 -34 -51 -37 -66 -3 -16 -9 -28 -14
-28 -19 0 -30 -47 -40 -177 -12 -163 -29 -252 -64 -338 -52 -132 -54 -278 -4
-376 31 -62 118 -171 254 -319 136 -148 205 -239 205 -270 0 -22 -85 -130
-137 -175 -21 -18 -53 -40 -72 -49 -18 -10 -35 -26 -38 -36 -3 -10 -18 -24
-34 -30 -28 -12 -67 -50 -224 -218 -38 -39 -72 -72 -78 -72 -5 0 -81 74 -170
164 -89 90 -180 173 -202 184 -22 11 -45 29 -52 40 -6 10 -25 22 -42 25 -22 5
-34 15 -45 39 -7 18 -42 65 -77 105 -35 39 -71 82 -80 95 -21 30 -161 124
-264 177 -44 23 -141 85 -215 138 -199 142 -334 233 -435 295 -49 31 -137 85
-195 120 -58 36 -245 136 -415 223 -171 87 -327 170 -347 186 -20 16 -105 62
-190 103 -159 78 -254 106 -357 106 -27 0 -52 4 -56 9 -5 9 31 18 165 41 89
16 212 56 271 89 28 15 94 66 147 114 53 47 122 103 152 124 30 21 61 50 69
64 20 35 8 87 -35 149 -51 75 -66 122 -67 225 -3 199 74 355 189 384 69 17
128 54 212 134 91 86 144 111 237 112 60 0 80 -5 140 -35 62 -31 78 -35 146
-34 129 1 221 65 235 163 3 25 14 52 23 59 21 18 78 8 111 -18z m798 -221 c26
-9 34 -19 42 -52 17 -71 32 -91 72 -98 22 -3 54 -21 83 -47 27 -23 66 -47 89
-53 72 -19 101 -39 214 -144 61 -56 131 -112 156 -124 59 -29 65 -38 77 -113
14 -90 27 -126 50 -133 10 -4 19 -10 19 -14 0 -12 -54 -83 -80 -106 -19 -17
-18 -12 10 42 l33 63 -27 38 c-16 24 -26 51 -26 74 0 59 -19 97 -55 112 -18 8
-50 33 -71 56 -21 23 -58 51 -82 61 -27 12 -49 30 -60 51 -28 53 -66 86 -113
98 -140 36 -150 40 -160 70 -7 18 -23 34 -47 44 -77 34 -85 41 -100 84 -7 23
-27 56 -44 72 -32 32 -28 36 20 19z m3130 -287 c45 -30 82 -57 82 -59 0 -14
-44 2 -62 22 -12 14 -46 42 -75 62 -29 20 -53 38 -53 40 0 6 13 -2 108 -65z
m-2399 -820 c1 -46 -75 -192 -100 -192 -19 0 -8 30 29 77 l37 48 -1 100 -2
100 18 -50 c10 -27 19 -65 19 -83z m-140 -370 c-9 -151 -33 -274 -70 -357 -12
-27 -27 -68 -35 -90 -7 -22 -13 -31 -13 -21 -1 10 15 64 34 120 46 136 53 172
65 337 9 127 16 167 25 157 2 -2 -1 -67 -6 -146z"/>
<path d="M5819 8443 c-13 -16 -12 -17 4 -4 9 7 17 15 17 17 0 8 -8 3 -21 -13z"/>
<path d="M5806 4532 c-3 -5 1 -9 9 -9 8 0 12 4 9 9 -3 4 -7 8 -9 8 -2 0 -6 -4
-9 -8z"/>
<path d="M7500 4160 c-9 -6 -10 -10 -3 -10 6 0 15 5 18 10 8 12 4 12 -15 0z"/>
<path d="M7044 4080 c0 -13 4 -16 10 -10 7 7 7 13 0 20 -6 6 -10 3 -10 -10z"/>
</g>
</svg>
