<svg xmlns="http://www.w3.org/2000/svg" xmlns:xlink="http://www.w3.org/1999/xlink" version="1.1" width="1000" height="1000" viewBox="0 0 1000 1000" xml:space="preserve">
<desc>Created with Fabric.js 3.5.0</desc>
<defs>
</defs>
<rect x="0" y="0" width="100%" height="100%" fill="#ffffff"/>
<g transform="matrix(0.4025 0 0 0.4025 499.9746 499.9712)" id="521920">
<g style="" vector-effect="non-scaling-stroke">
		<g transform="matrix(0.1333 0 0 -0.1333 -488.9519 -747.9014)">
<path style="stroke: none; stroke-width: 1; stroke-dasharray: none; stroke-linecap: butt; stroke-dashoffset: 0; stroke-linejoin: miter; stroke-miterlimit: 4; is-custom-font: none; font-file-url: none; fill: rgb(0,0,0); fill-rule: nonzero; opacity: 1;" transform=" translate(-1932.9946, -11959.1603)" d="M 1875 12348 c -11 -6 -40 -29 -64 -50 c -24 -21 -48 -38 -52 -38 c -5 0 -18 9 -29 20 c -41 41 -140 18 -140 -33 c 0 -16 -10 -20 -83 -32 c -55 -9 -64 -30 -70 -180 c -4 -85 -11 -146 -23 -175 c -31 -84 -17 -206 30 -253 c 23 -22 53 -22 101 3 c 49 25 53 25 84 -4 c 52 -47 159 -62 202 -27 c 15 12 35 52 54 107 c 34 101 49 114 131 114 c 73 0 108 -15 127 -55 c 9 -19 27 -40 39 -48 c 26 -16 219 -42 243 -33 c 9 3 22 21 30 41 c 43 101 -22 253 -117 272 c -20 4 -29 13 -33 34 c -4 16 -20 41 -37 56 c -72 64 -78 73 -84 115 c -9 60 -60 106 -160 146 c -84 34 -117 38 -149 20 z m 161 -62 c 86 -41 110 -64 118 -119 c 6 -33 18 -52 59 -91 c 28 -26 56 -62 62 -79 c 10 -31 18 -37 73 -58 c 49 -18 87 -88 87 -161 c 0 -87 -9 -93 -128 -75 c -102 15 -119 23 -140 66 c -19 40 -71 61 -154 61 c -67 0 -73 -2 -106 -33 c -25 -25 -39 -52 -52 -100 c -24 -90 -48 -112 -116 -104 c -38 5 -64 16 -96 41 c -31 24 -50 32 -61 27 c -9 -4 -34 -15 -56 -25 c -21 -9 -45 -15 -53 -12 c -40 16 -56 147 -27 227 c 9 26 18 90 20 154 c 7 169 9 175 47 175 c 46 0 100 30 107 60 c 5 20 13 26 40 28 c 28 3 39 -2 56 -23 c 27 -34 43 -30 126 36 c 73 59 80 59 194 5 z" stroke-linecap="round"/>
</g>
		<g transform="matrix(0.1333 0 0 -0.1333 3.8154 92.5282)">
<path style="stroke: none; stroke-width: 1; stroke-dasharray: none; stroke-linecap: butt; stroke-dashoffset: 0; stroke-linejoin: miter; stroke-miterlimit: 4; is-custom-font: none; font-file-url: none; fill: rgb(0,0,0); fill-rule: nonzero; opacity: 1;" transform=" translate(-5630, -5654.6551)" d="M 2047 11175 c -21 -7 -40 -15 -41 -17 c -15 -16 -26 -53 -26 -81 c 0 -61 -18 -93 -62 -113 c -23 -10 -65 -46 -97 -82 l -56 -64 l -56 6 c -69 8 -101 -5 -125 -50 c -18 -34 -18 -35 6 -102 c 49 -133 27 -246 -79 -399 c -126 -183 -184 -243 -238 -243 c -12 0 -34 -11 -49 -25 c -46 -43 -75 -35 -269 75 c -157 89 -184 96 -288 75 c -151 -31 -167 -52 -167 -223 c 0 -117 15 -190 56 -283 c 43 -96 58 -105 240 -143 c 222 -48 365 -70 394 -63 c 14 3 54 28 90 54 l 64 48 l 166 -1 c 159 -1 293 -12 430 -35 c 57 -10 70 -17 105 -54 c 22 -23 60 -80 84 -126 c 67 -127 126 -215 197 -293 c 35 -39 79 -93 96 -121 c 32 -48 50 -62 115 -85 c 18 -7 50 -30 70 -51 c 42 -43 97 -142 82 -148 c -14 -4 -37 28 -44 62 c -9 38 -55 81 -103 95 c -56 17 -97 54 -148 134 c -59 91 -109 145 -144 153 c -23 5 -29 13 -35 42 c -9 49 -60 148 -135 263 c -34 52 -63 96 -65 98 c -8 9 -434 33 -545 30 c -143 -4 -169 -11 -242 -70 c -42 -33 -174 -38 -223 -9 c -20 11 -75 28 -123 37 c -48 9 -110 20 -138 25 c -28 6 -69 19 -90 29 c -21 11 -44 20 -51 20 c -23 0 -33 -48 -33 -159 c 0 -112 -13 -168 -58 -257 c -35 -68 -41 -70 -133 -45 c -87 24 -133 21 -149 -9 c -31 -58 -39 -516 -10 -570 c 8 -14 19 -72 26 -130 c 8 -65 27 -153 52 -230 c 22 -69 43 -140 47 -157 c 9 -43 28 -42 76 2 c 58 52 119 45 119 -12 c 0 -42 27 -91 62 -110 c 27 -15 57 -18 168 -18 l 135 0 l 48 -35 c 42 -30 54 -34 103 -32 c 41 2 56 -1 60 -13 c 6 -15 63 -35 102 -35 c 14 0 36 -13 51 -29 l 28 -30 l -23 -5 c -36 -9 -52 -43 -80 -167 c -43 -196 -112 -318 -289 -515 c -192 -212 -258 -315 -325 -510 l -41 -118 l 63 -64 c 35 -35 81 -77 102 -93 c 21 -16 35 -29 29 -29 c -16 0 -84 53 -133 104 c -73 76 -100 62 -145 -75 c -50 -148 -156 -278 -269 -329 c -70 -31 -96 -64 -96 -120 c 0 -68 32 -108 163 -207 c 31 -23 67 -59 80 -80 c 13 -21 47 -65 75 -97 c 28 -33 64 -87 81 -121 c 17 -33 65 -103 107 -155 c 89 -111 124 -163 124 -185 c 0 -9 14 -24 31 -33 c 18 -10 56 -56 95 -114 c 42 -65 70 -98 83 -98 c 10 0 62 41 115 91 c 62 57 119 100 153 116 c 57 26 386 113 428 113 c 20 0 26 -7 35 -40 c 14 -54 59 -103 122 -134 c 63 -31 99 -33 124 -5 c 10 12 31 27 46 35 c 35 18 112 18 141 0 c 12 -7 34 -16 48 -20 c 27 -6 36 -2 179 77 c 36 20 117 59 180 87 l 115 50 l -35 -33 c -24 -23 -53 -37 -92 -45 c -33 -8 -92 -34 -140 -63 c -159 -97 -170 -100 -266 -78 c -69 16 -135 4 -176 -32 c -40 -35 -45 -35 -99 -7 c -23 11 -62 26 -87 33 c -43 11 -45 13 -51 52 c -8 63 -22 73 -94 73 c -99 0 -286 -36 -357 -68 c -35 -16 -85 -49 -112 -73 c -59 -52 -136 -154 -136 -179 c 0 -9 14 -34 30 -55 c 17 -21 44 -66 60 -99 c 16 -34 60 -95 96 -136 c 77 -86 178 -235 188 -276 c 6 -22 3 -31 -14 -44 c -32 -24 -21 -46 76 -152 c 46 -50 97 -114 112 -142 c 19 -35 42 -59 76 -80 c 42 -27 59 -31 142 -34 c 137 -6 213 26 198 84 c -6 22 49 110 78 128 c 13 8 34 6 80 -7 c 180 -51 246 -67 278 -67 c 33 0 90 -24 200 -85 c 41 -22 56 -24 165 -24 c 128 0 478 24 494 33 c 18 11 69 160 85 246 c 9 47 20 137 26 200 c 19 214 44 303 94 335 c 33 22 92 13 99 -14 c 7 -29 70 -70 118 -77 c 97 -13 199 43 266 145 c 58 89 103 133 204 201 c 138 93 179 157 127 193 c -21 15 -20 15 22 2 c 25 -7 66 -16 93 -20 c 73 -10 79 -24 91 -220 c 2 -43 1 -60 -4 -45 c -4 14 -8 44 -9 68 c -1 62 -20 128 -42 148 c -26 23 -54 13 -121 -45 c -31 -26 -90 -67 -130 -89 c -98 -54 -163 -114 -231 -214 c -57 -85 -97 -120 -164 -144 c -79 -28 -139 -12 -217 56 c -31 28 -66 50 -76 50 c -49 0 -78 -89 -105 -320 c -33 -281 -66 -411 -117 -458 c -37 -34 -80 -42 -223 -42 c -104 0 -135 -3 -153 -16 c -13 -9 -21 -22 -19 -29 c 4 -9 -12 -11 -66 -8 c -81 5 -141 23 -209 65 c -70 44 -153 69 -251 78 c -79 8 -94 13 -142 45 c -95 66 -195 57 -195 -17 c 0 -99 -89 -169 -214 -170 c -55 0 -77 5 -133 33 c -60 30 -77 34 -148 34 c -107 0 -169 -29 -273 -128 c -86 -82 -110 -97 -193 -121 c -98 -28 -162 -121 -195 -285 c -28 -141 -9 -262 56 -355 c 66 -97 63 -131 -13 -180 c -28 -18 -95 -72 -147 -119 c -144 -130 -227 -168 -477 -216 c -116 -22 -143 -34 -143 -60 c 0 -24 38 -38 125 -46 c 39 -3 93 -10 120 -16 c 58 -12 319 -137 385 -185 c 25 -17 104 -61 175 -97 c 503 -251 751 -398 1143 -675 c 206 -146 239 -167 316 -204 c 88 -43 202 -123 233 -165 c 15 -20 54 -64 85 -99 c 31 -34 64 -78 72 -98 c 11 -28 22 -36 49 -41 c 22 -4 37 -14 40 -25 c 3 -10 23 -26 46 -37 c 27 -12 101 -77 209 -185 c 116 -116 175 -168 190 -168 c 24 0 79 52 201 188 c 40 46 89 91 110 100 c 20 9 40 27 46 39 c 5 13 22 27 37 32 c 63 22 218 198 218 248 c 0 52 -37 104 -224 308 c -189 208 -251 296 -261 375 l -6 45 l 19 -56 c 25 -75 62 -138 84 -145 c 10 -3 18 -11 18 -17 c 0 -28 342 -399 394 -426 c 22 -12 43 -7 218 53 c 107 36 215 69 239 72 c 33 4 94 -6 240 -40 c 107 -24 218 -48 245 -51 c 65 -9 123 8 176 50 c 142 113 192 140 331 176 c 62 15 113 58 224 189 c 108 126 176 191 221 209 c 29 12 40 12 87 -4 l 54 -19 l 53 26 c 104 51 112 49 158 -42 c 33 -66 84 -131 166 -216 c 32 -33 101 -106 152 -162 c 52 -57 101 -102 111 -102 c 10 0 30 9 45 21 c 29 23 76 107 76 136 c 0 41 24 97 55 132 c 83 91 77 156 -10 110 l -37 -20 l -26 23 c -31 29 -128 177 -152 234 c -15 34 -26 45 -52 52 c -62 16 -73 120 -21 183 c 49 58 70 200 37 247 c -12 18 -25 22 -64 22 c -45 0 -50 2 -56 26 c -4 14 -4 56 -1 93 c 7 82 -4 145 -32 180 c -50 62 -54 70 -41 86 c 6 8 36 28 65 44 c 68 39 84 64 53 85 c -12 9 -32 16 -45 16 c -34 0 -71 17 -83 39 c -8 16 -4 32 20 78 c 17 32 38 96 47 141 c 16 81 16 84 -4 110 c -11 15 -51 44 -89 65 c -70 39 -102 63 -93 71 c 3 3 25 -8 49 -24 c 25 -17 60 -35 78 -41 c 30 -10 36 -8 59 12 c 30 29 54 75 98 187 l 33 86 l -24 35 c -25 38 -31 56 -13 46 c 22 -14 57 5 64 34 c 9 43 -10 103 -72 225 c -45 89 -54 115 -49 142 c 3 19 9 49 12 67 c 5 27 -2 42 -45 101 c -61 82 -72 113 -46 133 c 46 33 108 4 229 -106 c 100 -91 179 -147 244 -171 c 49 -19 70 -21 147 -17 c 84 6 93 4 140 -21 c 37 -20 55 -38 70 -69 c 11 -23 36 -59 55 -79 c 65 -67 225 -174 260 -174 c 28 0 3 45 -56 102 c -72 69 -106 125 -123 206 c -17 82 -47 130 -129 215 c -85 86 -88 95 -63 207 c 16 75 23 84 65 82 c 50 -2 100 -30 206 -115 c 105 -85 164 -118 225 -124 c 76 -9 100 50 44 107 c -37 37 -130 86 -182 95 c -45 9 -77 46 -77 90 c 0 42 19 57 83 63 c 84 7 98 33 29 52 c -20 5 -75 32 -122 60 c -176 105 -507 262 -582 277 c -18 3 -45 19 -60 35 c -14 15 -25 28 -24 28 c 1 0 42 -16 92 -36 c 120 -48 322 -148 472 -232 c 121 -69 216 -107 248 -100 c 38 7 39 32 11 150 c -15 62 -27 121 -27 130 c 0 24 44 73 58 64 c 7 -4 31 -35 53 -69 c 54 -80 88 -117 110 -117 c 47 0 27 71 -46 168 c -57 77 -63 90 -43 110 c 19 19 37 15 128 -28 c 47 -22 93 -40 102 -40 c 9 0 28 14 41 31 c 22 28 29 31 58 25 c 68 -13 129 -92 129 -166 c 0 -68 18 -80 63 -40 c 64 56 226 66 235 15 c 2 -11 25 -42 52 -70 c 55 -58 70 -83 70 -120 c 0 -75 45 -85 92 -20 c 44 60 87 80 134 65 c 71 -24 134 -99 134 -159 c 0 -45 31 -61 115 -61 c 82 0 100 8 92 41 c -53 202 -67 250 -81 283 c -46 110 -196 268 -338 355 c -48 29 -104 68 -126 87 c -47 39 -53 67 -77 311 c -23 241 -30 403 -17 403 c 7 0 55 -11 107 -25 c 118 -30 287 -42 366 -26 c 87 18 113 54 145 201 c 24 112 31 120 108 120 c 77 0 227 37 317 78 c 37 16 108 57 159 91 c 51 33 99 61 108 61 c 31 0 333 -172 424 -242 c 51 -39 161 -139 243 -222 c 120 -121 156 -164 182 -216 c 36 -74 109 -151 166 -175 c 22 -9 71 -40 109 -70 c 87 -66 109 -72 152 -45 c 19 11 45 20 59 20 c 46 0 77 17 77 43 c 0 29 -27 55 -107 102 c -35 20 -63 41 -63 47 c 0 5 14 28 31 49 c 18 23 33 56 36 79 c 5 34 1 43 -25 70 c -20 20 -40 30 -60 30 c -21 0 -36 8 -49 26 c -28 38 -106 45 -162 16 l -40 -21 l -28 21 c -15 12 -67 59 -114 104 c -117 111 -196 168 -270 193 c -76 25 -99 45 -99 83 c 0 41 14 63 57 89 c 48 28 93 69 93 85 c 0 22 -41 63 -91 90 c -27 15 -55 39 -62 53 c -12 25 -20 28 -112 50 c -27 7 -106 36 -175 66 c -228 97 -273 102 -415 45 c -87 -34 -70 -38 -202 42 c -86 52 -232 123 -275 133 c -24 6 -34 1 -72 -39 c -54 -55 -92 -61 -146 -21 c -29 21 -41 25 -77 19 c -40 -6 -44 -4 -95 45 c -63 61 -99 74 -256 91 c -150 17 -174 11 -239 -57 l -54 -56 l -79 7 c -72 7 -79 6 -89 -13 c -6 -11 -11 -32 -11 -46 c 0 -60 -43 -86 -72 -43 c -19 28 -48 18 -48 -17 c 0 -34 -37 -70 -103 -100 c -56 -27 -98 -30 -162 -15 c -22 6 -137 14 -255 20 c -231 11 -330 23 -370 45 c -33 19 -21 18 128 -5 c 149 -23 250 -27 348 -16 c 60 7 85 5 155 -14 c 105 -27 153 -18 211 40 c 31 31 38 45 38 78 c 0 33 -6 45 -31 66 c -17 14 -43 29 -57 32 c -54 13 -62 29 -62 128 c 0 117 -11 136 -80 136 c -68 0 -71 5 -140 186 c -46 121 -73 154 -157 187 c -103 41 -157 79 -196 139 c -57 88 -169 178 -220 178 c -32 0 -47 -8 -131 -68 c -25 -18 -106 -67 -178 -109 c -221 -126 -283 -172 -458 -338 c -95 -91 -190 -153 -369 -245 c -56 -29 -90 -54 -102 -74 c -20 -33 -25 -23 -9 19 c 6 16 24 32 47 42 c 84 34 159 76 181 99 c 13 13 30 24 38 24 c 24 0 94 52 188 139 c 161 149 366 305 444 338 c 20 8 84 46 142 83 c 58 37 124 77 147 89 c 45 23 45 22 63 134 c 6 37 24 102 41 145 c 38 98 48 172 26 205 c -9 14 -44 38 -79 54 c -113 53 -258 179 -258 222 c 0 18 74 91 91 91 c 24 0 34 54 39 203 l 5 158 l 37 32 c 46 40 58 65 58 118 c 0 113 -51 176 -271 331 c -134 95 -229 184 -229 217 c -1 25 -21 55 -79 116 c -29 32 -62 77 -73 102 c -10 24 -51 83 -89 131 c -81 100 -119 168 -119 212 c 0 17 -7 46 -14 65 c -14 32 -19 35 -55 35 c -41 0 -91 -17 -91 -31 c 0 -11 -59 -29 -96 -29 c -29 0 -36 -5 -48 -32 c -13 -33 -13 -32 -12 27 c 1 57 0 60 -25 63 c -35 4 -99 -66 -141 -155 c -18 -38 -34 -70 -35 -72 c -2 -2 -29 21 -60 51 c -32 30 -68 60 -81 67 c -24 13 -62 7 -62 -10 c 0 -25 -72 -39 -207 -40 c -79 0 -153 -5 -173 -12 c -42 -14 -70 -63 -70 -120 c 0 -39 -14 -77 -28 -77 c -5 0 -18 21 -31 47 c -13 26 -35 63 -51 83 c -37 48 -57 88 -65 135 c -14 72 -35 115 -63 122 c -55 13 -81 -69 -64 -198 c 5 -41 7 -77 3 -82 c -4 -4 -59 -14 -122 -21 c -126 -16 -166 -28 -220 -63 c -27 -18 -48 -23 -81 -22 c -73 4 -83 -13 -48 -88 c 13 -29 25 -43 38 -43 c 47 0 111 -88 112 -153 c 0 -20 13 -41 40 -69 c 73 -75 41 -138 -70 -138 c -77 0 -135 22 -200 75 c -64 53 -126 78 -230 94 c -126 20 -148 28 -179 71 c -39 55 -76 83 -151 117 c -36 16 -94 55 -129 86 c -39 35 -73 57 -87 57 c -40 0 -28 -32 42 -111 c 91 -103 114 -146 125 -229 c 10 -81 19 -99 69 -130 c 47 -29 82 -85 114 -182 c 41 -120 33 -174 -18 -123 c -39 39 -109 65 -274 101 c -13 2 -58 37 -100 77 c -95 91 -126 112 -180 126 c -66 18 -124 110 -162 257 c -15 62 -42 90 -99 104 c -27 6 -76 28 -110 48 c -50 29 -62 41 -67 68 c -11 58 46 430 73 475 c 9 15 43 42 76 61 c 92 51 140 116 182 246 c 26 78 18 93 -72 136 c -43 21 -110 58 -149 82 c -39 24 -74 44 -77 44 c -4 0 -16 -19 -28 -42 c -36 -72 -38 -73 -78 -35 c -40 38 -86 57 -139 57 c -28 0 -43 8 -71 39 c -60 64 -91 73 -164 46 z m 121 -49 c 43 -49 72 -65 124 -70 c 56 -5 102 -28 124 -60 c 32 -50 61 -42 96 28 c 11 23 22 42 23 44 c 2 2 27 -12 56 -31 c 30 -19 91 -53 137 -76 c 83 -42 83 -42 77 -74 c -13 -59 -72 -174 -106 -206 c -19 -17 -59 -46 -89 -64 c -72 -42 -86 -73 -116 -250 c -32 -188 -39 -304 -22 -337 c 17 -32 107 -86 182 -109 c 32 -10 63 -26 68 -35 c 5 -9 18 -49 29 -88 c 37 -132 99 -219 173 -240 c 53 -15 108 -53 170 -118 c 67 -68 97 -85 187 -103 c 86 -17 189 -62 189 -82 c 0 -7 7 -16 16 -19 c 75 -29 95 44 48 182 c -32 98 -72 160 -127 199 c -45 31 -57 57 -57 127 c 0 49 -42 126 -106 196 c -55 60 -56 62 -14 27 c 25 -21 77 -54 116 -73 c 88 -42 118 -66 149 -114 c 27 -43 73 -62 190 -80 c 107 -16 157 -36 223 -89 c 72 -58 134 -81 219 -81 c 98 0 142 33 143 104 c 0 31 -6 44 -34 70 c -25 22 -38 46 -46 80 c -6 27 -16 58 -22 70 c -16 31 -70 86 -85 86 c -20 0 -53 38 -53 60 c 0 17 7 20 40 20 c 40 0 90 17 90 31 c 0 14 95 39 209 54 c 152 19 154 22 141 138 c -20 169 30 235 60 80 c 7 -33 25 -83 42 -110 c 139 -228 131 -221 173 -179 c 17 17 25 39 30 89 c 11 99 13 100 213 107 c 164 5 194 11 221 44 c 17 21 26 15 118 -74 c 75 -74 76 -75 86 -50 c 44 106 79 171 112 205 c 31 32 40 37 43 23 c 5 -25 -23 -119 -65 -213 c -20 -46 -37 -104 -40 -135 c -7 -76 15 -103 106 -130 c 47 -14 82 -32 112 -58 l 43 -39 l -33 -32 c -18 -17 -37 -28 -43 -25 c -12 7 -49 48 -86 94 l -19 24 l -109 -39 c -205 -72 -301 -132 -339 -212 c -9 -19 -20 -70 -25 -114 c -6 -65 -12 -83 -29 -95 c -15 -11 -21 -26 -21 -53 c 0 -25 -5 -41 -15 -45 c -24 -9 -18 -49 15 -93 c 16 -22 35 -64 41 -93 c 19 -89 -9 -190 -54 -190 c -59 0 -187 -133 -187 -193 c 0 -32 44 -74 92 -89 c 48 -14 68 -41 68 -91 c 0 -69 -10 -77 -99 -77 c -90 0 -165 -22 -187 -55 c -18 -28 -10 -53 47 -136 c 52 -77 89 -156 89 -192 c 0 -43 -25 -92 -73 -144 c -53 -57 -68 -84 -69 -124 c -1 -30 35 -79 58 -79 c 6 0 21 -8 33 -17 c 17 -15 18 -21 8 -34 c -20 -27 -109 -79 -134 -79 c -32 0 -80 -26 -93 -49 c -26 -49 -14 -72 90 -173 c 133 -128 134 -156 10 -173 c -59 -7 -119 -42 -148 -85 c -20 -30 -23 -43 -19 -92 c 5 -56 4 -58 -18 -58 c -15 0 -26 8 -30 20 c -21 65 -296 34 -359 -41 c -14 -17 -26 -36 -27 -42 c -2 -50 -12 -104 -20 -112 c -5 -5 -9 -1 -9 12 c 0 54 -92 105 -180 100 c -32 -2 -35 1 -47 37 c -18 53 -27 171 -19 240 c 6 43 14 63 34 81 c 24 22 27 32 26 88 c -1 45 -8 77 -27 117 c -30 63 -170 229 -346 410 l -121 125 l -17 -25 c -38 -55 -100 -110 -126 -110 c -14 0 -29 5 -33 11 c -4 7 -10 73 -14 148 c -5 101 -11 145 -24 171 c -28 54 -191 208 -244 231 c -64 28 -180 149 -221 233 c -43 85 -99 148 -153 170 c -24 10 -52 23 -63 28 c -11 5 -34 30 -50 56 c -16 26 -57 76 -90 112 c -76 81 -107 127 -181 264 c -72 134 -130 202 -186 216 c -114 31 -519 61 -619 46 c -32 -5 -66 -22 -115 -57 c -68 -50 -70 -51 -124 -44 c -89 10 -452 85 -479 98 c -13 7 -39 39 -57 72 c -47 85 -67 181 -62 309 c 4 126 13 140 104 162 c 103 24 147 19 238 -27 c 44 -23 93 -50 107 -60 c 15 -10 55 -32 90 -49 c 82 -38 136 -40 169 -5 c 13 14 33 25 45 25 c 28 0 86 39 126 84 c 106 121 203 281 224 368 c 21 88 19 129 -11 214 c -37 107 -15 136 96 127 c 63 -4 60 -6 123 69 c 29 33 66 65 93 77 c 52 25 74 64 74 134 c 0 48 11 63 57 77 c 51 15 70 11 101 -24 z m 3748 -807 c 7 -37 19 -80 28 -96 c 13 -26 89 -129 105 -143 c 18 -16 61 -82 75 -114 c 9 -21 44 -69 79 -105 c 39 -42 67 -82 75 -107 c 17 -57 70 -114 185 -199 c 56 -41 128 -94 160 -117 c 85 -62 124 -105 143 -154 c 25 -65 14 -121 -30 -161 c -56 -51 -59 -64 -58 -218 c 0 -77 -4 -147 -8 -155 c -4 -8 -29 -31 -55 -50 c -47 -35 -75 -74 -75 -105 c 0 -40 195 -202 295 -245 c 79 -34 80 -58 11 -247 c -14 -40 -29 -103 -34 -140 l -7 -68 l -67 -36 c -37 -20 -98 -57 -135 -82 c -37 -24 -92 -56 -120 -70 c -106 -52 -241 -153 -406 -303 c -139 -127 -187 -163 -229 -174 c -21 -6 -43 -20 -48 -31 c -6 -11 -58 -42 -114 -69 c -121 -58 -123 -61 -128 -202 c -2 -54 -7 -100 -11 -104 c -4 -4 -36 3 -71 14 c -36 12 -72 19 -80 16 c -25 -10 -116 108 -116 152 c 0 14 -22 41 -65 79 c -45 39 -65 64 -65 80 c 0 29 -44 65 -79 65 c -14 0 -42 -9 -61 -19 c -87 -48 -81 -47 -96 -26 c -8 10 -14 38 -14 62 c 0 24 -6 56 -14 71 c -15 28 -91 104 -163 161 l -43 34 l 86 43 c 48 24 97 52 109 64 c 50 47 40 146 -20 193 c -35 28 -47 67 -21 67 c 19 0 62 52 93 113 c 21 43 24 61 21 116 c -5 80 -45 174 -94 222 c -61 59 -48 73 72 82 c 97 7 161 52 185 129 c 25 78 -8 132 -110 183 c -30 15 -50 30 -45 35 c 5 5 45 29 89 53 c 106 58 133 96 149 208 c 7 49 9 107 5 139 c -7 47 -13 60 -45 87 l -38 31 l 32 36 c 36 42 46 83 34 146 c -11 61 1 101 45 144 c 36 35 179 111 254 135 c 76 25 79 24 141 -35 c 52 -50 62 -56 89 -50 c 101 20 151 144 91 225 c -18 25 -120 93 -189 126 c -18 9 -33 21 -33 28 c 0 6 23 75 51 153 l 51 142 l 48 4 c 33 3 59 13 81 32 c 22 19 41 26 62 24 c 30 -3 31 -6 43 -69 z m -345 -202 c -25 -70 -45 -107 -36 -62 c 8 36 46 127 51 122 c 2 -2 -5 -29 -15 -60 z m 77 -172 c 56 -31 111 -69 122 -83 c 34 -42 22 -44 -19 -3 c -34 34 -129 81 -163 81 c -17 0 -58 41 -58 57 c 0 8 3 12 8 10 c 4 -2 53 -30 110 -62 z m -23 -180 c 28 -33 55 -55 67 -55 c 11 0 38 17 59 39 c 32 32 39 35 39 19 c 0 -29 -54 -78 -85 -78 c -20 0 -40 14 -74 50 c -56 60 -80 63 -179 24 c -124 -49 -221 -105 -261 -151 c -23 -26 -37 -36 -34 -25 c 9 37 62 89 122 121 c 66 35 257 110 282 111 c 9 0 38 -25 64 -55 z m -4969 -281 c 21 -9 100 -27 174 -41 c 83 -15 142 -31 153 -41 c 14 -12 42 -18 96 -20 c 90 -5 149 9 190 43 c 52 45 92 55 208 55 c 78 0 406 -19 520 -30 c 0 0 28 -42 62 -94 c 72 -114 116 -199 126 -246 c 9 -44 22 -60 47 -60 c 26 0 78 -56 135 -145 c 54 -84 92 -119 153 -142 c 58 -21 83 -44 99 -90 c 7 -21 26 -51 42 -68 c 16 -16 46 -50 67 -74 c 20 -24 89 -84 153 -132 c 208 -157 259 -245 259 -450 c 0 -72 3 -82 25 -104 c 18 -19 35 -25 68 -25 c 61 0 107 18 117 46 c 8 21 12 22 38 13 c 45 -15 149 -111 269 -247 c 140 -160 155 -184 148 -241 c -3 -24 -18 -65 -33 -90 c -72 -117 -77 -189 -22 -309 c 39 -87 60 -226 60 -410 c 0 -153 17 -254 52 -304 c 12 -17 41 -35 78 -49 c 33 -12 60 -25 60 -30 c 0 -12 -66 -22 -104 -15 c -25 5 -37 14 -46 35 c -6 16 -27 43 -46 61 c -41 41 -86 49 -196 36 c -100 -11 -108 -8 -108 48 c 0 84 -33 134 -108 163 c -43 16 -45 16 -58 -2 c -8 -10 -14 -36 -14 -58 c 0 -46 -12 -71 -56 -113 c -19 -17 -34 -41 -34 -52 c 0 -32 -17 -35 -24 -6 c -9 34 1 77 28 129 c 18 35 21 56 21 165 c -1 162 -10 184 -80 188 c -88 6 -282 -38 -300 -68 c -6 -10 -45 -15 -45 -6 c 0 3 9 21 21 40 c 12 21 22 61 26 103 c 7 92 -2 99 -111 94 c -160 -9 -173 -7 -217 29 c -96 77 -201 73 -291 -9 c -85 -77 -132 -94 -195 -70 c -15 5 -39 21 -53 34 c -36 35 -123 70 -219 90 c -46 9 -105 23 -132 31 c -45 14 -49 17 -69 72 c -30 79 -88 330 -99 432 c -5 47 -14 97 -20 112 c -15 40 -61 60 -120 52 c -42 -5 -50 -3 -63 15 c -16 22 -65 41 -107 41 c -13 0 -34 11 -46 24 c -20 22 -29 24 -77 19 c -48 -5 -57 -2 -84 21 c -51 42 -80 48 -185 41 c -151 -10 -204 12 -216 91 c -13 87 -86 111 -159 53 l -39 -30 l -8 33 c -4 18 -24 83 -43 143 c -23 72 -39 145 -45 209 c -5 55 -17 116 -27 135 c -14 30 -17 66 -16 221 c 0 102 4 215 8 253 c 10 89 21 95 119 67 c 40 -11 82 -20 93 -20 c 30 0 69 46 106 125 c 31 66 32 77 36 208 c 2 75 7 137 12 137 c 4 0 25 -7 46 -16 z m 4503 -75 c 1 -9 -18 -44 -41 -79 l -42 -62 l 43 -37 c 39 -33 44 -43 48 -88 c 7 -69 -14 -186 -41 -225 c -13 -19 -51 -49 -91 -71 c -138 -75 -146 -104 -43 -155 c 95 -48 120 -108 72 -176 c -13 -19 -14 -15 -14 40 c 0 35 -6 68 -14 79 c -7 10 -42 32 -77 49 c -37 18 -65 38 -67 49 c -8 41 116 167 164 167 c 32 0 63 42 76 103 c 16 76 -1 166 -42 224 l -31 43 l 20 26 c 14 18 19 34 15 51 c -5 18 -1 28 14 39 c 11 8 24 29 28 47 c 6 28 8 29 15 12 c 4 -11 8 -27 8 -36 z m -2378 -873 c 40 -45 46 -54 22 -38 c -36 26 -83 78 -83 94 c 0 6 1 9 3 7 c 2 -2 28 -31 58 -63 z m 2092 -93 c -7 -2 -19 -2 -25 0 c -7 3 -2 5 12 5 c 14 0 19 -2 13 -5 z m -60 -13 c -45 -18 -38 -66 18 -125 c 38 -40 81 -138 87 -195 c 3 -36 -2 -58 -23 -101 c -32 -63 -62 -99 -84 -99 c -10 0 -2 13 21 38 c 21 20 44 54 53 74 c 32 78 15 143 -72 273 c -29 44 -53 87 -53 97 c 0 19 37 48 60 47 c 9 0 7 -4 -7 -9 z m -1782 -97 c 110 -106 129 -136 135 -210 l 4 -58 l -13 45 c -30 100 -111 208 -211 281 c -25 18 -33 29 -22 29 c 9 0 57 -39 107 -87 z m 615 -623 c 74 -81 164 -189 164 -198 c -1 -8 -2 -6 -163 176 c -113 128 -188 195 -247 219 c -45 19 -44 17 -24 48 l 17 26 l 101 -108 c 56 -59 124 -133 152 -163 z m -452 165 c 9 -14 14 -25 12 -25 c -8 0 -36 31 -36 41 c 0 15 7 10 24 -16 z m 1593 -16 c 0 -23 10 -40 41 -69 c 23 -21 42 -40 42 -43 c 0 -3 -25 8 -55 25 c -58 31 -68 54 -45 99 c 14 26 17 24 17 -12 z m -1472 11 c -3 -5 -14 -10 -23 -10 c -15 0 -15 2 -2 10 c 20 13 33 13 25 0 z m 3608 -93 c 60 -47 122 -116 132 -148 c 9 -27 109 -91 193 -123 c 82 -31 103 -60 157 -209 c 21 -56 48 -117 62 -134 c 22 -30 29 -33 77 -33 c 65 0 66 -1 66 -121 c 0 -82 2 -92 25 -114 c 13 -14 32 -25 42 -25 c 10 0 33 -9 51 -20 c 52 -32 42 -90 -23 -130 c -42 -26 -92 -28 -165 -6 c -45 14 -81 16 -200 11 c -120 -6 -168 -3 -279 14 c -205 32 -290 27 -320 -20 c -7 -12 -15 -47 -18 -78 c -3 -31 -10 -64 -15 -74 c -13 -25 -75 -52 -166 -72 c -81 -19 -123 -47 -149 -102 c -46 -97 -262 -191 -673 -293 c -107 -27 -224 -58 -260 -69 c -35 -11 -66 -19 -68 -17 c -1 2 13 30 33 62 c 44 74 44 102 1 159 c -44 57 -51 105 -51 337 c 0 127 4 181 12 189 c 10 10 24 8 67 -10 c 127 -52 154 -30 165 141 c 5 74 11 102 25 117 c 11 12 75 50 144 87 c 170 89 230 132 342 240 c 149 145 224 199 463 334 c 71 40 143 84 160 100 c 74 63 97 64 170 7 z m -2070 -129 c -19 -22 -221 -124 -229 -115 c -15 14 15 39 65 53 c 62 18 158 75 169 102 c 6 16 7 16 10 -1 c 2 -10 -5 -28 -15 -39 z m -3447 36 c 12 -3 26 -16 32 -30 c 12 -25 36 -194 29 -201 c -3 -2 -8 18 -11 44 c -18 128 -43 172 -98 174 c -22 0 -22 1 -3 9 c 25 11 26 11 51 4 z m -17 -58 c 7 -8 21 -61 32 -118 c 52 -270 62 -318 84 -381 c 44 -129 92 -166 247 -193 c 114 -20 147 -33 208 -84 c 60 -51 107 -70 167 -70 c 71 0 128 32 169 96 c 19 29 43 58 53 64 c 45 24 115 6 156 -40 c 34 -39 77 -50 190 -50 c 118 0 116 2 79 -72 c -30 -58 -9 -129 46 -162 c 48 -28 110 -15 110 24 c 0 30 28 50 71 50 c 22 0 71 5 110 11 c 38 7 72 9 75 6 c 8 -8 -13 -134 -47 -279 c -27 -116 -28 -131 -16 -161 c 16 -37 70 -87 95 -87 c 24 0 104 90 137 156 l 29 58 l 16 -75 l 16 -74 l 145 -6 c 153 -7 165 -10 237 -65 c 42 -31 97 -56 153 -68 c 15 -3 31 -17 38 -32 c 10 -23 41 -195 41 -231 c 0 -43 -307 30 -407 96 c -60 40 -92 39 -205 -5 c -107 -42 -221 -68 -368 -84 c -169 -18 -397 -27 -474 -17 c -140 18 -173 14 -261 -30 c -103 -52 -164 -65 -291 -65 c -102 0 -106 0 -187 41 c -45 22 -90 41 -100 41 c -34 0 -81 32 -171 119 c -96 90 -136 116 -199 126 c -20 3 -68 22 -105 41 c -113 60 -136 66 -313 74 c -117 6 -175 13 -195 23 c -16 9 -62 49 -103 90 l -73 75 l 27 83 c 15 46 42 116 60 154 c 37 80 159 247 255 350 c 36 39 84 93 107 121 c 84 102 172 275 188 369 c 14 82 37 161 52 178 c 20 22 105 24 122 3 z m 3415 -264 c 54 -53 69 -82 60 -118 c -8 -30 12 -81 37 -94 c 28 -16 52 -12 90 14 c 64 44 103 39 127 -17 c 13 -29 37 -56 71 -81 c 32 -24 53 -47 57 -64 c 10 -48 31 -86 74 -134 c 33 -39 48 -48 74 -48 c 18 0 54 -7 80 -16 c 26 -9 60 -14 76 -12 c 32 5 37 -1 18 -20 c -17 -17 -50 -15 -99 8 c -59 27 -95 26 -111 -2 c -8 -15 -14 -84 -16 -198 c -4 -193 11 -304 48 -350 c 44 -54 46 -69 21 -114 c -63 -108 -66 -118 -47 -131 c 14 -11 8 -14 -40 -20 c -124 -15 -214 -61 -214 -109 c 0 -31 33 -58 124 -101 c 142 -67 258 -206 376 -452 c 59 -122 91 -160 123 -147 c 20 7 31 62 23 112 l -7 37 l 25 -41 c 15 -23 39 -47 57 -54 l 31 -13 l -39 -19 c -48 -23 -61 -40 -69 -94 c -3 -24 -10 -44 -15 -44 c -15 0 -59 79 -135 243 c -48 104 -93 185 -128 231 c -95 124 -203 216 -253 216 c -14 0 -47 12 -73 27 c -45 25 -50 26 -91 14 c -49 -15 -179 -136 -179 -167 c 0 -10 12 -30 26 -46 l 27 -27 l -22 -62 c -43 -117 -27 -186 41 -172 c 21 4 50 -4 109 -32 c 50 -23 143 -52 247 -77 c 170 -41 192 -52 192 -94 c 0 -23 -2 -22 -74 17 c -86 46 -174 77 -306 108 c -157 36 -198 50 -244 85 c -63 48 -80 56 -149 67 c -34 5 -104 24 -156 40 c -200 67 -284 2 -199 -152 c 27 -49 31 -63 22 -86 c -13 -38 -56 -64 -156 -96 c -52 -17 -94 -37 -108 -52 l -24 -25 l 21 -28 c 11 -15 37 -37 59 -49 c 49 -28 27 -30 -27 -3 c -103 53 -61 139 92 189 c 90 29 113 52 107 105 c -7 61 -47 163 -76 191 c -48 48 -79 29 -150 -90 c -41 -69 -55 -84 -107 -113 c -33 -18 -80 -53 -105 -77 c -51 -49 -178 -114 -241 -122 c -44 -6 -59 4 -59 42 c 0 18 1 18 16 -3 c 22 -33 76 -29 160 12 c 48 23 83 49 112 82 c 24 27 73 69 110 94 c 55 37 72 55 95 102 c 20 43 42 68 83 99 c 31 22 62 55 69 72 c 12 29 13 29 24 10 c 16 -30 64 -43 131 -36 c 51 5 65 2 111 -21 c 66 -35 178 -59 238 -51 c 78 11 99 23 116 69 c 20 51 10 84 -34 116 c -17 12 -31 30 -31 40 c 0 35 147 139 233 164 c 13 4 17 16 17 49 c 0 67 -26 141 -100 282 c -37 72 -73 147 -80 168 c -16 50 -40 61 -135 61 c -61 0 -92 -5 -129 -22 c -27 -12 -56 -22 -65 -22 c -9 0 -34 18 -55 40 c -68 72 -138 46 -151 -58 c -9 -70 -15 -92 -23 -92 c -4 0 -5 22 -4 49 c 4 54 -22 293 -39 355 c -10 38 -42 78 -70 88 c -8 3 -11 9 -7 13 c 14 15 74 -35 96 -79 c 13 -25 25 -74 29 -111 c 7 -74 24 -95 80 -95 c 36 0 83 -18 83 -32 c 0 -16 49 -58 68 -58 c 11 0 46 18 78 40 c 65 44 79 47 142 25 c 65 -23 94 -5 249 150 c 74 74 137 135 140 135 c 2 0 -6 -19 -19 -41 c -13 -23 -65 -80 -116 -127 c -103 -95 -122 -122 -122 -180 c 0 -76 87 -272 152 -338 c 66 -69 154 -49 266 61 l 73 71 l -36 100 c -58 159 -75 244 -75 379 c 0 66 -4 126 -9 134 c -5 8 -19 12 -35 9 c -32 -6 -32 -5 0 37 c 37 49 34 86 -9 134 c -20 22 -41 58 -47 81 c -14 52 -58 101 -110 125 c -35 16 -46 17 -74 7 c -43 -16 -73 -15 -143 3 c -97 25 -235 14 -275 -22 c -14 -12 -18 -32 -18 -82 c 0 -48 -5 -75 -20 -98 c -24 -40 -30 -40 -61 -7 c -31 33 -55 46 -104 55 c -83 15 -225 -29 -254 -79 c -9 -15 -10 -13 -11 9 c 0 14 8 33 18 41 c 41 36 199 71 269 61 c 19 -3 38 -15 48 -29 c 11 -17 25 -24 49 -24 c 47 0 59 19 51 79 c -5 39 -3 57 11 80 c 22 38 76 68 139 76 c 66 8 92 22 102 54 c 16 48 3 69 -93 157 c -52 47 -94 91 -94 96 c 0 11 102 -71 174 -140 z m -949 27 c 6 -40 4 -49 -20 -77 c -35 -42 -45 -81 -45 -177 c 0 -94 19 -192 43 -229 c 16 -23 22 -25 57 -20 c 73 12 150 -20 150 -62 c 0 -10 -14 -4 -46 21 c -52 39 -99 47 -108 17 c -15 -47 -25 -182 -26 -335 c 0 -196 5 -214 78 -251 c 53 -28 51 -33 -5 -11 c -22 9 -49 31 -63 51 c -24 36 -25 44 -31 273 c -8 264 -14 308 -61 419 c -46 109 -44 153 13 261 c 36 69 44 95 44 137 c 0 60 10 51 20 -17 z m -2339 -123 c 19 -77 43 -159 54 -183 c 23 -52 52 -66 185 -94 c 151 -31 150 -30 253 -102 c 79 -55 173 -43 249 32 c 49 49 80 67 123 74 c 31 5 32 5 10 -4 c -69 -29 -89 -44 -119 -90 c -40 -62 -82 -89 -139 -89 c -55 0 -96 18 -152 65 c -61 51 -108 71 -220 90 c -143 25 -178 51 -223 165 c -19 49 -68 269 -66 298 c 1 13 2 13 6 -3 c 2 -11 20 -83 39 -159 z m 3390 -171 c 57 -14 65 -14 102 0 c 38 16 42 15 80 -4 c 48 -24 77 -62 86 -112 c 4 -21 20 -48 41 -69 c 64 -62 51 -86 -180 -319 l -173 -174 l -48 7 c -130 20 -123 20 -162 -11 c -20 -16 -48 -36 -61 -43 c -23 -12 -27 -10 -55 23 c -38 43 -64 57 -108 57 c -48 0 -54 8 -61 78 c -13 125 -80 208 -179 221 c -39 5 -52 11 -49 21 c 2 8 9 37 15 64 c 20 81 80 116 199 116 c 63 0 99 -14 136 -54 c 32 -34 53 -33 85 4 c 32 39 48 97 40 148 c -4 24 -2 42 5 46 c 45 28 183 28 287 1 z m -2377 -150 c 50 -40 47 -39 201 -40 c 94 0 115 -3 118 -15 c 2 -13 -16 -14 -135 -10 c -141 5 -163 11 -198 50 c -11 13 -38 32 -60 42 l -40 19 l 34 -5 c 19 -4 55 -22 80 -41 z m 5873 14 c 133 -15 170 -29 235 -90 c 52 -49 56 -51 97 -46 c 36 5 49 2 77 -18 c 23 -18 46 -25 78 -25 c 40 0 48 5 86 45 l 41 45 l 40 -14 c 55 -19 218 -102 283 -143 c 88 -57 93 -57 179 -21 c 112 46 186 45 307 -6 c 181 -77 258 -106 294 -112 c 60 -10 69 -14 74 -34 c 3 -11 26 -32 52 -47 c 26 -16 59 -38 73 -49 c 32 -26 24 -39 -43 -79 c -61 -35 -85 -69 -85 -120 c 0 -36 5 -48 34 -72 c 18 -17 53 -35 78 -41 c 63 -16 145 -74 270 -191 c 59 -55 121 -107 138 -116 c 29 -15 33 -15 64 4 c 50 31 106 28 144 -9 c 19 -18 42 -30 59 -30 c 65 0 82 -64 33 -125 c -39 -49 -47 -82 -26 -103 c 8 -9 46 -34 83 -57 c 79 -47 86 -68 27 -75 c -23 -4 -53 -14 -68 -24 c -34 -22 -49 -17 -122 40 c -32 25 -84 59 -114 74 c -69 35 -126 96 -164 175 c -23 47 -63 94 -185 216 c -86 85 -194 185 -241 221 c -114 88 -393 242 -440 242 c -26 0 -57 -14 -124 -58 c -163 -107 -326 -166 -464 -166 c -88 0 -112 -25 -135 -136 c -35 -177 -49 -189 -232 -189 c -110 0 -148 5 -246 29 c -64 16 -125 26 -134 22 c -17 -6 -18 -18 -11 -149 c 7 -154 30 -393 48 -497 c 9 -58 15 -70 57 -110 c 26 -25 87 -69 136 -99 c 111 -67 246 -199 298 -291 c 20 -36 43 -95 52 -130 c 15 -63 42 -162 52 -187 c 4 -10 -11 -13 -55 -13 c -71 0 -92 6 -92 29 c 0 74 -69 159 -151 186 c -45 15 -51 15 -91 -3 c -27 -11 -54 -34 -72 -60 c -32 -47 -46 -53 -46 -19 c 0 53 -23 99 -71 145 c -27 25 -49 54 -49 64 c 0 57 -154 73 -248 27 l -52 -26 l 0 31 c -1 78 -83 170 -164 183 c -36 6 -42 3 -68 -27 l -27 -34 l -88 42 c -49 23 -98 42 -109 42 c -31 0 -74 -38 -74 -64 c 0 -13 25 -56 55 -97 c 30 -41 59 -87 65 -104 l 10 -30 l -26 30 c -15 17 -45 59 -68 95 c -49 77 -73 86 -117 44 c -42 -40 -45 -77 -15 -192 c 34 -133 34 -136 -6 -128 c -44 9 -157 63 -292 140 c -126 72 -268 139 -470 221 c -77 31 -176 75 -219 97 c -44 22 -109 45 -146 52 c -103 20 -197 76 -245 145 c -25 35 -28 48 -24 92 c 3 32 12 58 25 70 c 19 20 20 20 46 -1 c 14 -12 50 -26 79 -32 c 69 -14 124 6 141 53 c 12 30 12 30 70 24 c 46 -6 63 -4 85 11 c 15 10 55 21 90 25 c 105 11 103 8 206 349 c 80 264 89 318 84 523 c -4 182 -4 183 -89 295 c -52 67 -59 86 -33 96 c 27 10 57 7 113 -15 c 44 -16 94 -22 240 -30 c 166 -9 311 -21 424 -36 c 76 -10 198 45 236 108 c 11 18 22 26 25 20 c 11 -18 62 -12 81 9 c 9 10 20 40 22 65 l 6 45 l 79 -6 l 79 -7 l 47 50 c 76 80 75 80 244 62 z m -5561 -157 c -6 -21 -20 -49 -31 -62 c -26 -30 -25 -23 7 57 c 28 70 42 73 24 5 z m 1166 -13 c 37 -34 90 -72 118 -86 c 121 -60 121 -60 134 -105 c 13 -51 41 -275 41 -334 c 0 -24 -6 -49 -15 -57 c -8 -8 -54 -22 -102 -31 c -108 -20 -102 -20 -96 4 c 9 33 -21 64 -101 105 c -42 21 -82 45 -88 52 c -16 20 -21 229 -8 343 c 17 152 21 170 36 170 c 7 0 44 -28 81 -61 z m 100 -19 c -2 -24 -10 -25 -26 -6 c -10 11 -8 15 6 19 c 10 3 19 5 20 6 c 1 0 1 -8 0 -19 z m -937 -24 c 0 -6 -161 -28 -167 -23 c -2 3 19 10 49 15 c 56 10 118 15 118 8 z m 2095 -103 c -9 -106 14 -241 66 -388 l 42 -117 l -59 -59 c -32 -32 -72 -65 -90 -74 c -39 -18 -94 -20 -116 -2 c -53 42 -147 235 -156 320 l -5 48 l 114 114 c 72 72 124 133 140 165 c 24 49 43 69 63 70 c 4 0 5 -35 1 -77 z m -2407 27 c 18 0 32 4 32 9 c 0 5 6 11 14 14 c 12 5 13 1 1 -26 c -7 -18 -21 -33 -30 -35 c -21 -5 -61 22 -76 50 c -12 22 -11 22 8 6 c 11 -10 34 -18 51 -18 z m 367 -134 c -4 -52 -14 -92 -26 -112 c -37 -61 -34 -165 6 -180 c 19 -8 55 23 55 47 c 0 10 18 35 40 56 c 36 34 42 45 47 96 c 6 62 14 67 63 42 c 39 -20 60 -63 60 -123 c 0 -49 12 -75 40 -85 c 8 -3 -4 -6 -26 -6 l -41 -1 l -13 63 c -6 34 -18 77 -26 96 c -11 27 -17 31 -28 22 c -8 -7 -17 -25 -21 -40 c -7 -34 -65 -124 -108 -169 l -31 -32 l -33 32 c -41 40 -42 63 -8 195 c 14 54 28 124 32 157 c 10 93 27 41 18 -58 z m 3563 81 c 12 -17 38 -52 56 -77 c 52 -68 59 -105 54 -307 c -4 -147 -9 -192 -28 -261 c -13 -45 -25 -80 -27 -78 c -2 2 1 41 7 87 c 6 46 14 167 17 269 c 6 204 -1 255 -43 297 c -32 32 -57 24 -114 -37 c -46 -49 -53 -52 -193 -75 c -48 -8 -73 -32 -87 -85 c -10 -38 -17 -44 -75 -70 c -34 -15 -67 -35 -72 -43 c -11 -19 -56 -41 -124 -61 c -85 -24 -98 -39 -101 -116 l -3 -65 l -50 -23 c -27 -13 -58 -31 -68 -40 c -17 -15 -17 -14 -9 9 c 5 13 25 32 44 41 c 19 9 40 23 47 32 c 18 21 6 65 -20 75 c -25 9 -265 -36 -417 -78 c -59 -17 -127 -32 -152 -36 l -45 -6 l 31 15 c 17 7 140 41 272 75 c 132 33 290 77 351 96 c 201 65 360 160 391 234 c 16 41 44 56 138 80 c 136 34 182 70 182 142 c 0 47 8 49 38 6 z m 38 -133 c 15 -39 16 -68 11 -222 c -9 -235 -31 -421 -57 -472 c -11 -22 -31 -82 -45 -132 c -28 -107 -42 -122 -116 -132 c -28 -4 -71 -16 -95 -28 c -36 -16 -55 -19 -99 -13 c -54 6 -56 6 -97 -34 c -22 -23 -45 -41 -49 -41 c -5 0 -31 9 -59 20 c -107 42 -140 21 -167 -104 c -23 -105 -36 -118 -111 -110 c -77 8 -123 32 -146 75 c -25 47 -18 70 49 166 c 115 165 110 151 111 303 c 0 74 2 140 2 147 c 1 6 22 19 46 28 c 73 28 86 46 86 120 l 0 63 l 45 16 c 25 9 66 23 92 32 c 25 9 60 30 76 45 c 17 16 47 34 68 39 c 40 11 89 60 89 90 c 0 38 32 60 104 71 c 93 15 129 32 167 79 c 45 56 72 54 95 -6 z m -2331 -164 c 46 -47 70 -50 140 -19 c 34 15 69 21 122 22 c 84 0 91 -4 116 -73 c 9 -25 37 -81 62 -124 c 58 -103 97 -199 103 -257 c 4 -44 3 -47 -24 -53 c -65 -17 -234 -148 -234 -183 c 0 -7 18 -33 40 -57 c 43 -47 50 -78 24 -115 c -16 -22 -21 -23 -118 -19 c -90 3 -108 6 -168 36 c -60 30 -74 33 -141 31 c -82 -3 -107 8 -107 46 c 0 12 7 28 16 36 c 18 15 44 63 44 82 c 0 7 -6 22 -14 32 c -12 16 -25 19 -80 17 c -60 -2 -69 0 -90 23 c -37 40 -57 109 -63 226 l -6 106 l 69 23 c 94 31 161 66 178 93 c 7 12 17 46 20 76 c 4 30 12 63 17 73 c 16 30 52 21 94 -22 z m -3906 -80 c 86 -102 168 -131 374 -131 l 148 1 l 49 -34 c 27 -19 71 -42 97 -51 c 94 -33 193 -88 260 -144 c 116 -96 146 -117 223 -156 c 105 -53 265 -105 325 -106 c 78 -1 226 57 313 122 c 29 22 68 43 87 46 c 29 5 38 1 67 -30 c 55 -60 141 -77 184 -36 c 19 18 41 22 161 29 c 153 10 263 26 478 70 c 178 37 213 37 282 4 c 37 -18 81 -29 140 -35 c 167 -17 311 -67 368 -128 c 17 -18 45 -39 63 -46 c 29 -13 32 -18 32 -58 c 0 -48 -17 -71 -80 -110 c -22 -14 -44 -41 -60 -74 c -33 -66 -62 -97 -123 -130 c -28 -16 -62 -46 -82 -74 c -25 -35 -51 -56 -106 -83 c -106 -53 -139 -47 -139 26 c 0 41 -34 88 -64 88 c -9 0 -41 23 -71 50 c -58 53 -79 59 -111 35 c -29 -22 -47 -18 -121 21 c -93 49 -141 46 -244 -18 c -100 -62 -147 -84 -194 -92 c -22 -4 -51 -18 -65 -31 c -25 -24 -196 -115 -280 -149 c -69 -28 -238 -114 -278 -141 c -42 -29 -66 -31 -115 -10 c -72 30 -185 11 -225 -38 c -33 -39 -166 42 -187 113 c -24 83 -47 86 -250 35 c -266 -67 -309 -87 -427 -202 l -86 -85 l -57 86 c -31 47 -71 97 -88 112 c -17 14 -39 43 -48 63 c -9 20 -43 68 -74 106 c -94 115 -135 173 -154 218 c -10 23 -43 71 -73 107 c -30 36 -67 83 -80 105 c -24 39 -54 64 -156 136 c -58 41 -89 107 -73 158 c 9 31 19 40 79 68 c 119 56 231 196 283 355 c 21 63 35 88 49 88 c 4 0 26 -22 49 -50 z m 3168 37 c 19 -10 73 -73 73 -84 c 0 -2 -17 10 -37 26 c -44 35 -100 50 -198 52 c -66 2 -67 2 -25 9 c 74 12 164 10 187 -3 z m 295 -96 c -3 -44 27 -57 98 -42 c 75 16 73 7 -4 -19 c -36 -12 -66 -25 -66 -28 c 2 -93 24 -252 40 -296 c 31 -81 65 -106 145 -106 c 35 0 67 -5 70 -11 c 4 -6 -8 -33 -26 -60 l -34 -49 l -8 30 c -5 20 -17 34 -35 41 c -15 6 -43 25 -62 44 c -36 35 -137 86 -200 101 c -34 8 -33 9 25 14 l 60 5 l -2 75 c -3 97 -29 213 -52 234 c -11 10 -32 21 -47 26 c -23 6 -24 8 -8 9 c 35 2 82 21 88 37 c 3 9 -6 26 -22 41 l -27 27 l 35 -21 c 30 -17 35 -25 32 -52 z m -3057 -36 c 20 -7 -171 -3 -195 4 c -14 4 22 6 80 4 c 58 -3 110 -6 115 -8 z m 238 -59 c 34 -19 85 -40 112 -47 c 74 -18 113 -41 183 -108 c 75 -74 82 -91 11 -27 c -61 55 -153 108 -234 136 c -75 26 -169 80 -139 80 c 3 0 33 -15 67 -34 z m 4765 -45 c -2 -9 -19 -23 -39 -33 c -60 -28 -62 -35 -70 -215 l -8 -165 l -49 -51 c -26 -29 -63 -82 -82 -120 c -33 -67 -33 -69 -26 -167 c 9 -151 -2 -146 -93 36 c -126 256 -237 386 -394 462 c -48 23 -90 49 -94 58 c -15 40 69 78 199 89 c 95 8 168 22 248 47 c 86 26 382 86 398 80 c 7 -2 12 -12 10 -21 z m -2387 -131 c 43 -29 157 -71 232 -85 c 66 -13 34 -15 -59 -5 c -60 7 -105 18 -137 35 c -66 34 -120 32 -335 -9 c -223 -44 -296 -54 -455 -65 c -107 -7 -134 -12 -158 -30 c -15 -11 -37 -21 -47 -21 c -36 0 -81 22 -97 47 l -17 25 l 64 -7 c 73 -8 355 9 510 31 c 133 18 230 43 328 83 c 95 38 117 38 171 1 z m -1990 -67 c 13 -16 12 -17 -3 -4 c -17 13 -22 21 -14 21 c 2 0 10 -8 17 -17 z m 107 -53 c 10 0 48 -15 84 -34 c 143 -77 346 -71 508 13 c 70 37 80 38 54 10 c -41 -46 -239 -129 -306 -129 c -72 0 -321 94 -383 145 c -20 16 -20 16 2 6 c 12 -6 30 -11 41 -11 z m 2199 14 c -3 -3 -12 -4 -19 -1 c -8 3 -5 6 6 6 c 11 1 17 -2 13 -5 z m 1988 -176 c -11 -25 -14 -27 -10 -8 c 3 14 9 61 13 105 l 7 80 l 3 -72 c 2 -49 -2 -82 -13 -105 z m 871 61 c -13 -40 -24 -67 -25 -58 c -1 24 38 143 45 136 c 2 -2 -7 -37 -20 -78 z m -1641 36 c 22 -14 49 -25 60 -25 c 24 0 88 -33 86 -44 c -1 -4 23 -26 52 -49 c 86 -66 157 -170 243 -360 c 49 -106 91 -184 116 -211 c 24 -28 36 -50 32 -60 c -9 -23 -41 -20 -54 5 c -7 11 -40 33 -74 49 c -61 27 -76 43 -76 80 c 0 46 -31 62 -209 106 c -104 25 -201 56 -247 78 c -47 22 -91 36 -115 36 c -38 0 -39 1 -39 38 c 0 20 9 61 20 90 c 26 68 25 84 -6 115 l -26 26 l 31 39 c 45 58 119 110 156 111 c 6 0 28 -11 50 -24 z m 691 -224 c -31 -44 -63 -95 -72 -113 l -15 -33 l 6 34 c 6 40 54 123 98 168 c 50 53 43 30 -17 -56 z m 890 10 c -21 -39 -44 -51 -98 -51 c -25 0 -60 -9 -82 -21 c -31 -16 -49 -19 -86 -14 c -56 8 -87 -5 -92 -37 c -7 -53 -113 -61 -178 -13 c -31 23 -50 23 -77 2 c -16 -12 -17 -2 -3 24 c 13 24 36 24 100 -1 c 71 -28 86 -26 130 19 c 39 39 40 39 99 34 c 47 -4 66 -2 86 11 c 15 10 58 23 97 31 c 44 8 78 21 91 34 c 27 27 32 20 13 -18 z m -2175 -127 c 41 -14 112 -32 158 -39 c 70 -12 92 -21 135 -53 c 72 -55 82 -59 208 -88 c 241 -53 371 -110 478 -209 c 39 -35 79 -67 90 -70 c 27 -9 26 -56 -1 -81 c -11 -10 -39 -28 -62 -40 c -56 -28 -69 -54 -65 -136 c 5 -94 26 -121 101 -129 c 73 -8 98 -26 138 -96 c 45 -80 94 -145 173 -231 c 39 -42 69 -85 73 -103 c 3 -17 18 -38 35 -50 c 20 -14 47 -60 87 -144 c 57 -120 104 -198 140 -233 c 29 -28 104 -133 171 -242 l 62 -101 l -23 -62 c -30 -82 -74 -170 -92 -186 c -19 -15 -63 5 -152 71 c -108 79 -178 124 -310 198 c -257 143 -395 267 -395 354 c -1 52 -34 110 -115 197 c -42 46 -86 102 -97 124 c -11 22 -57 98 -101 168 l -82 128 l -296 -7 c -242 -5 -298 -3 -305 7 c -4 8 -11 106 -16 219 c -12 331 -14 335 -168 355 c -62 8 -165 64 -165 90 c 0 16 19 27 105 57 c 82 29 112 45 138 72 c 40 45 41 75 2 146 c -69 129 -13 171 151 114 z m -262 -49 c 12 -25 27 -68 33 -95 c 14 -63 7 -72 -80 -101 c -98 -32 -143 -65 -163 -118 c -22 -56 22 -119 99 -142 c 88 -26 76 -60 -50 -144 c -119 -80 -167 -124 -221 -205 c -56 -83 -74 -101 -129 -130 c -84 -45 -182 -30 -214 32 c -25 47 -89 62 -145 32 c -46 -24 -77 -101 -94 -236 c -8 -62 -21 -169 -30 -237 c -15 -116 -53 -261 -79 -296 c -8 -12 -55 -19 -206 -30 c -107 -8 -238 -15 -290 -15 c -101 0 -95 -2 -220 68 c -38 21 -84 35 -150 46 c -52 9 -138 29 -190 46 c -126 40 -147 39 -192 -7 c -39 -40 -68 -97 -68 -133 c 0 -35 -60 -53 -160 -48 c -104 5 -156 30 -190 92 c -28 50 -77 113 -148 188 c -53 56 -53 57 -37 82 c 12 18 15 36 11 58 c -9 45 -72 148 -146 238 c -131 161 -150 186 -150 201 c 0 10 -18 41 -40 70 c -22 30 -40 57 -40 60 c 0 12 80 111 120 149 c 81 78 213 121 413 136 c 99 8 107 4 107 -53 c 0 -42 19 -59 79 -72 c 27 -6 65 -20 83 -31 c 47 -29 84 -26 119 9 c 35 36 94 47 159 32 c 101 -23 127 -16 278 77 c 49 30 107 56 139 63 c 37 9 70 25 101 51 c 26 21 57 38 70 38 c 30 0 84 23 101 43 c 7 10 24 17 36 17 c 13 0 94 36 181 81 c 154 79 160 81 219 77 c 45 -3 70 -11 100 -31 c 44 -30 76 -34 95 -12 c 18 22 26 19 89 -30 c 31 -25 63 -45 69 -45 c 15 0 28 -31 37 -81 c 3 -21 12 -43 20 -49 c 43 -36 241 39 330 124 c 28 27 68 57 90 68 c 56 28 81 54 122 123 c 71 119 92 125 132 40 z m -1014 -63 c 62 -37 79 -40 132 -23 l 42 14 l 42 -37 c 23 -21 58 -45 78 -53 c 41 -17 51 -29 50 -58 c 0 -11 -3 -14 -6 -7 c -3 7 -19 20 -36 28 c -18 9 -55 34 -83 55 c -54 42 -87 48 -115 23 c -16 -14 -22 -13 -71 15 c -43 24 -67 31 -110 31 c -69 0 -107 -14 -233 -84 c -55 -31 -118 -61 -140 -67 c -43 -12 -49 -14 -88 -42 c -13 -10 -42 -20 -63 -23 c -38 -5 -38 -5 21 26 c 33 18 74 44 91 59 c 17 16 53 32 86 39 c 31 7 82 29 114 49 c 141 86 157 94 199 90 c 22 -2 63 -18 90 -35 z m 2853 -136 c 9 -10 44 -37 77 -59 c 55 -36 57 -39 26 -33 c -18 3 -42 17 -52 30 c -12 15 -41 30 -84 41 c -36 10 -79 28 -95 40 l -31 23 l 36 6 c 25 5 39 15 47 32 l 11 24 l 24 -42 c 14 -24 32 -52 41 -62 z m -181 7 c 3 -7 9 -11 13 -8 c 4 3 13 -2 20 -10 c 7 -8 44 -24 84 -36 c 46 -13 78 -29 92 -45 c 15 -18 39 -29 86 -39 c 36 -7 88 -24 114 -38 c 27 -13 99 -43 159 -66 c 61 -23 130 -50 154 -59 c 24 -9 42 -21 41 -26 c -3 -13 52 -46 78 -46 c 42 0 307 -122 294 -135 c -4 -5 -1 -5 5 -1 c 13 7 214 -93 305 -151 l 47 -30 l -35 -16 c -64 -31 -68 -110 -9 -173 c 22 -23 41 -34 61 -34 c 41 0 123 -41 162 -80 c 30 -30 32 -34 18 -49 c -12 -11 -19 -12 -27 -4 c -6 6 -17 9 -24 6 c -17 -6 -56 15 -133 71 c -38 28 -60 51 -56 58 c 4 6 3 8 -4 4 c -6 -3 -16 -1 -24 6 c -23 22 -102 73 -131 86 c -43 18 -104 15 -126 -7 c -33 -33 -62 -196 -43 -243 c 4 -9 39 -50 78 -90 c 76 -78 99 -112 88 -130 c -4 -7 -3 -8 4 -4 c 7 4 14 -4 18 -21 c 27 -121 49 -169 103 -227 c 36 -39 36 -39 -26 9 c -35 26 -60 52 -56 58 c 3 5 2 7 -4 4 c -12 -8 -58 40 -67 69 c -19 63 -128 131 -200 125 c -122 -11 -149 -7 -226 32 c -41 21 -103 64 -138 95 c -115 105 -143 127 -194 155 c -58 31 -82 33 -126 12 c -52 -26 -50 -102 4 -160 c 53 -56 81 -105 52 -90 c -7 4 -6 0 3 -7 c 15 -12 15 -16 2 -42 c -19 -36 -13 -75 21 -145 c 14 -30 23 -58 19 -64 c -4 -6 -1 -7 7 -2 c 10 6 12 4 7 -8 c -4 -10 -2 -16 5 -14 c 15 3 57 -100 58 -140 c 0 -24 -5 -33 -16 -33 c -14 0 -29 26 -23 40 c 1 3 -19 36 -44 73 c -51 75 -55 82 -31 73 c 9 -3 12 -2 9 4 c -4 6 -14 9 -23 8 c -13 -2 -16 3 -14 22 c 1 17 -1 21 -7 11 c -6 -10 -19 2 -49 44 c -23 32 -39 62 -36 66 c 3 5 1 9 -4 9 c -13 0 -59 73 -122 194 c -54 104 -85 153 -110 173 c -8 6 -15 15 -15 20 c -1 20 -32 62 -85 113 c -31 30 -69 75 -85 100 c -15 25 -45 71 -67 103 c -22 32 -36 63 -32 70 c 5 9 4 9 -6 0 c -9 -8 -20 -5 -47 13 c -20 13 -40 24 -45 24 c -5 0 -6 4 -3 10 c 3 5 0 7 -8 4 c -22 -8 -40 22 -32 53 c 8 34 131 157 147 147 c 6 -4 8 -3 4 4 c -3 6 5 28 19 48 c 25 37 26 42 19 133 c -5 64 -4 92 3 88 c 6 -4 10 1 9 10 c -2 34 129 57 141 26 z m 578 -188 c 61 -28 121 -57 135 -63 l 25 -12 l -25 6 c -34 8 -189 70 -263 105 c -59 27 -60 28 -22 23 c 22 -4 90 -30 150 -59 z m -922 41 c 18 -7 40 -25 49 -38 c 21 -32 49 -40 82 -22 c 59 30 19 -35 -77 -124 c -65 -62 -89 -103 -85 -149 c 2 -30 10 -42 36 -58 c 113 -69 126 -81 175 -164 c 28 -46 84 -119 124 -162 c 40 -43 73 -84 73 -91 c 0 -7 -29 19 -65 57 c -60 65 -87 102 -168 229 c -43 66 -71 85 -142 94 c -57 7 -61 9 -72 42 c -20 59 -16 126 9 150 c 12 11 27 20 34 20 c 20 0 76 52 89 83 c 18 44 8 64 -51 103 c -69 46 -73 56 -11 30 z m -1215 -213 c 15 -29 21 -78 32 -253 c 12 -195 24 -266 48 -275 c 38 -15 258 -24 422 -19 c 202 8 175 20 259 -115 c 49 -78 87 -129 221 -299 c 47 -59 50 -67 50 -121 c 0 -86 38 -157 98 -182 c 25 -11 80 -50 121 -86 c 42 -37 101 -77 131 -90 c 139 -60 234 -117 286 -172 c 15 -17 42 -33 59 -37 c 16 -3 42 -21 57 -39 c 15 -17 59 -49 97 -69 c 39 -20 75 -46 81 -56 c 15 -28 -14 -159 -52 -231 c -28 -54 -30 -61 -18 -90 c 15 -35 60 -59 110 -59 c 43 0 37 -13 -21 -45 c -96 -52 -109 -81 -60 -137 c 48 -55 53 -73 52 -181 c -1 -56 4 -116 10 -134 c 10 -32 12 -33 65 -33 c 49 0 54 -2 60 -26 c 15 -59 -11 -159 -57 -216 c -46 -56 -19 -194 40 -208 c 16 -4 34 -24 54 -60 c 49 -92 140 -220 169 -238 c 23 -14 30 -14 55 -2 c 15 8 31 16 36 18 c 17 9 4 -16 -28 -53 c -44 -50 -63 -90 -75 -156 c -11 -58 -42 -114 -72 -130 c -22 -12 -21 -13 -239 222 c -117 126 -155 176 -198 262 c -39 77 -70 83 -176 30 c -54 -26 -56 -26 -91 -10 c -19 9 -46 17 -60 17 c -58 0 -137 -61 -237 -180 c -94 -113 -165 -187 -202 -210 c -16 -10 -61 -26 -99 -34 c -89 -21 -164 -61 -258 -140 c -55 -46 -88 -66 -117 -71 c -45 -7 -157 12 -336 57 c -187 49 -228 45 -464 -35 l -194 -67 l -39 32 c -56 44 -295 304 -329 357 c -16 24 -42 56 -57 70 c -36 32 -72 117 -79 185 c -5 51 -3 61 56 219 c 34 91 52 191 60 334 l 8 132 l 37 42 c 48 53 96 153 96 201 c 0 21 -9 60 -20 88 c -11 28 -20 59 -20 70 c 0 10 22 44 49 75 c 65 74 71 100 33 135 c -25 22 -31 38 -37 91 c -11 100 -25 124 -89 154 c -34 16 -94 62 -156 120 c -105 99 -163 138 -218 150 c -18 4 -60 29 -94 56 c -41 32 -71 49 -89 49 c -25 0 -29 5 -39 43 c -18 73 -32 91 -85 108 c -87 30 -68 39 77 39 c 150 0 200 10 241 48 c 63 59 93 162 127 437 c 28 229 53 335 79 335 c 5 0 30 -20 57 -45 c 84 -80 188 -94 293 -40 c 50 25 85 63 155 168 c 49 73 107 122 199 172 c 40 21 100 62 135 92 c 35 29 68 53 72 53 c 5 0 13 -8 18 -17 z m 409 -489 l 288 7 l 76 -118 c 80 -122 103 -163 95 -163 c -3 0 -42 56 -87 125 l -81 124 l -282 0 c -288 -1 -336 5 -336 37 c 0 16 2 16 20 -1 c 18 -17 39 -17 307 -11 z m 1262 -217 l 23 -42 l -26 28 c -15 15 -30 27 -34 27 c -4 0 -12 16 -18 35 l -11 36 l 22 -21 c 12 -11 32 -39 44 -63 z m 62 -109 c 39 -78 117 -202 199 -318 c 78 -110 116 -170 106 -170 c -2 0 -29 37 -59 83 c -31 45 -79 109 -107 142 c -41 48 -170 275 -170 299 c 0 16 12 2 31 -36 z m -685 -165 c 14 -23 27 -61 30 -85 c 11 -89 98 -187 265 -296 c 48 -32 95 -63 105 -69 c 16 -11 15 -11 -8 -3 c -60 20 -111 53 -175 111 c -37 34 -88 71 -112 83 c -65 31 -83 61 -91 155 c -7 77 -10 85 -55 144 c -37 48 -41 55 -15 32 c 17 -16 43 -49 56 -72 z m -3296 -73 c 50 -40 83 -52 173 -61 c 113 -11 143 -21 230 -71 c 88 -51 138 -68 203 -68 c 29 0 64 -4 77 -9 c 46 -18 95 -70 111 -119 c 17 -50 39 -70 96 -88 c 22 -7 40 -21 48 -38 c 19 -38 63 -62 141 -77 c 69 -13 89 -27 150 -109 c 14 -18 40 -39 59 -47 c 19 -8 52 -34 74 -58 c 22 -24 53 -49 70 -56 c 33 -14 48 -43 48 -97 c 0 -20 7 -48 15 -62 c 8 -14 17 -31 21 -39 c 4 -8 -5 -35 -21 -64 c -40 -71 -46 -110 -34 -199 c 13 -92 9 -112 -31 -164 c -17 -21 -34 -51 -37 -66 c -3 -16 -9 -28 -14 -28 c -19 0 -30 -47 -40 -177 c -12 -163 -29 -252 -64 -338 c -52 -132 -54 -278 -4 -376 c 31 -62 118 -171 254 -319 c 136 -148 205 -239 205 -270 c 0 -22 -85 -130 -137 -175 c -21 -18 -53 -40 -72 -49 c -18 -10 -35 -26 -38 -36 c -3 -10 -18 -24 -34 -30 c -28 -12 -67 -50 -224 -218 c -38 -39 -72 -72 -78 -72 c -5 0 -81 74 -170 164 c -89 90 -180 173 -202 184 c -22 11 -45 29 -52 40 c -6 10 -25 22 -42 25 c -22 5 -34 15 -45 39 c -7 18 -42 65 -77 105 c -35 39 -71 82 -80 95 c -21 30 -161 124 -264 177 c -44 23 -141 85 -215 138 c -199 142 -334 233 -435 295 c -49 31 -137 85 -195 120 c -58 36 -245 136 -415 223 c -171 87 -327 170 -347 186 c -20 16 -105 62 -190 103 c -159 78 -254 106 -357 106 c -27 0 -52 4 -56 9 c -5 9 31 18 165 41 c 89 16 212 56 271 89 c 28 15 94 66 147 114 c 53 47 122 103 152 124 c 30 21 61 50 69 64 c 20 35 8 87 -35 149 c -51 75 -66 122 -67 225 c -3 199 74 355 189 384 c 69 17 128 54 212 134 c 91 86 144 111 237 112 c 60 0 80 -5 140 -35 c 62 -31 78 -35 146 -34 c 129 1 221 65 235 163 c 3 25 14 52 23 59 c 21 18 78 8 111 -18 z m 798 -221 c 26 -9 34 -19 42 -52 c 17 -71 32 -91 72 -98 c 22 -3 54 -21 83 -47 c 27 -23 66 -47 89 -53 c 72 -19 101 -39 214 -144 c 61 -56 131 -112 156 -124 c 59 -29 65 -38 77 -113 c 14 -90 27 -126 50 -133 c 10 -4 19 -10 19 -14 c 0 -12 -54 -83 -80 -106 c -19 -17 -18 -12 10 42 l 33 63 l -27 38 c -16 24 -26 51 -26 74 c 0 59 -19 97 -55 112 c -18 8 -50 33 -71 56 c -21 23 -58 51 -82 61 c -27 12 -49 30 -60 51 c -28 53 -66 86 -113 98 c -140 36 -150 40 -160 70 c -7 18 -23 34 -47 44 c -77 34 -85 41 -100 84 c -7 23 -27 56 -44 72 c -32 32 -28 36 20 19 z m 3130 -287 c 45 -30 82 -57 82 -59 c 0 -14 -44 2 -62 22 c -12 14 -46 42 -75 62 c -29 20 -53 38 -53 40 c 0 6 13 -2 108 -65 z m -2399 -820 c 1 -46 -75 -192 -100 -192 c -19 0 -8 30 29 77 l 37 48 l -1 100 l -2 100 l 18 -50 c 10 -27 19 -65 19 -83 z m -140 -370 c -9 -151 -33 -274 -70 -357 c -12 -27 -27 -68 -35 -90 c -7 -22 -13 -31 -13 -21 c -1 10 15 64 34 120 c 46 136 53 172 65 337 c 9 127 16 167 25 157 c 2 -2 -1 -67 -6 -146 z" stroke-linecap="round"/>
</g>
		<g transform="matrix(0.1333 0 0 -0.1333 30.0024 -279.3203)">
<path style="stroke: none; stroke-width: 1; stroke-dasharray: none; stroke-linecap: butt; stroke-dashoffset: 0; stroke-linejoin: miter; stroke-miterlimit: 4; is-custom-font: none; font-file-url: none; fill: rgb(0,0,0); fill-rule: nonzero; opacity: 1;" transform=" translate(-5825.0221, -8444.8984)" d="M 5819 8443 c -13 -16 -12 -17 4 -4 c 9 7 17 15 17 17 c 0 8 -8 3 -21 -13 z" stroke-linecap="round"/>
</g>
		<g transform="matrix(0.1333 0 0 -0.1333 28.6663 242.4664)">
<path style="stroke: none; stroke-width: 1; stroke-dasharray: none; stroke-linecap: butt; stroke-dashoffset: 0; stroke-linejoin: miter; stroke-miterlimit: 4; is-custom-font: none; font-file-url: none; fill: rgb(0,0,0); fill-rule: nonzero; opacity: 1;" transform=" translate(-5815, -4531.5)" d="M 5806 4532 c -3 -5 1 -9 9 -9 c 8 0 12 4 9 9 c -3 4 -7 8 -9 8 c -2 0 -6 -4 -9 -8 z" stroke-linecap="round"/>
</g>
		<g transform="matrix(0.1333 0 0 -0.1333 254.0863 292.0663)">
<path style="stroke: none; stroke-width: 1; stroke-dasharray: none; stroke-linecap: butt; stroke-dashoffset: 0; stroke-linejoin: miter; stroke-miterlimit: 4; is-custom-font: none; font-file-url: none; fill: rgb(0,0,0); fill-rule: nonzero; opacity: 1;" transform=" translate(-7505.6508, -4159.5)" d="M 7500 4160 c -9 -6 -10 -10 -3 -10 c 6 0 15 5 18 10 c 8 12 4 12 -15 0 z" stroke-linecap="round"/>
</g>
		<g transform="matrix(0.1333 0 0 -0.1333 193.5498 302.6662)">
<path style="stroke: none; stroke-width: 1; stroke-dasharray: none; stroke-linecap: butt; stroke-dashoffset: 0; stroke-linejoin: miter; stroke-miterlimit: 4; is-custom-font: none; font-file-url: none; fill: rgb(0,0,0); fill-rule: nonzero; opacity: 1;" transform=" translate(-7051.625, -4080)" d="M 7044 4080 c 0 -13 4 -16 10 -10 c 7 7 7 13 0 20 c -6 6 -10 3 -10 -10 z" stroke-linecap="round"/>
</g>
</g>
</g>
</svg>